<svg width="120" height="24" viewBox="0 0 120 24" fill="none" xmlns="http://www.w3.org/2000/svg">
<g clip-path="url(#clip0_649_5629)">
<mask id="mask0_649_5629" style="mask-type:luminance" maskUnits="userSpaceOnUse" x="0" y="0" width="120" height="24">
<path d="M0 0H120V24H0V0Z" fill="white"/>
</mask>
<g mask="url(#mask0_649_5629)">
<path d="M27.0692 0.430886C25.2 0.3966 17.0885 0.373743 12.3577 0.373743H0V4.77374C9.94615 4.77374 21.75 4.75089 26.9192 4.83089C27.8423 4.84232 28.7538 4.93374 29.4808 5.57374C30.1615 6.16803 30.3923 7.10517 30.0923 7.9166C29.6077 9.23089 28.2577 9.55089 26.9192 9.57374C24.8654 9.60803 19.2462 9.61946 15.0462 9.61946C4.74231 9.63089 9.20769 9.61946 0 9.61946V14.008C9.94615 14.008 21.7731 13.9852 26.9192 14.0652C28.5231 14.088 30.2192 14.6366 30.2192 16.4195C30.2192 18.2023 28.5231 18.7737 26.9192 18.7966C21.7846 18.8766 9.94615 18.8537 0 18.8537V23.2537C9.98077 23.2537 23.0423 23.288 27.0692 23.1966C29.1923 23.1509 32.3423 22.6137 34.1654 19.8709C35.8846 17.2995 35.4692 13.9509 33.2077 11.8137C35.4692 9.66517 35.8846 6.3166 34.1654 3.7566C32.3308 1.01374 29.1923 0.488029 27.0692 0.430886ZM106.362 0.497172C103.731 0.440029 99.75 0.405743 96.2423 0.394315C87.6808 0.360029 92.8269 0.371457 84.6692 0.371457V4.78289C93.3577 4.78289 99.4385 4.71431 106.142 4.89717C108.115 4.95431 110.227 5.16003 112.131 6.46289C113.931 7.69717 115.004 9.67432 115.004 11.8C115.004 13.9257 113.965 15.9029 112.165 17.1486C110.262 18.4515 108.15 18.6572 106.177 18.7143C99.4731 18.8972 93.3808 18.8286 84.7038 18.8286L84.6692 23.24C93.4038 23.24 99.6808 23.2743 106.362 23.1143C109.038 23.0572 112.327 22.7486 115.373 20.5886C118.258 18.5429 120 15.3315 120 11.7886C120 8.24574 118.258 5.03431 115.373 2.9886V3.02289C112.338 0.862886 109.038 0.554315 106.362 0.497172ZM45.7038 7.16231C45.6923 5.0366 45.7038 2.52231 45.7038 0.373743H40.5692C40.5692 2.54517 40.5231 6.9566 40.6154 9.09374C40.7885 13.2309 42.15 14.5223 46.4192 14.6709C49.3846 14.7737 51.7269 14.7395 55.8231 14.728V10.2937C52.5462 10.2937 51.2077 10.2937 48.7846 10.2595C46.4538 10.2137 45.7154 9.45946 45.7038 7.16231ZM64.6962 10.2937C67.0962 10.2937 70.0269 10.2823 71.1346 10.2595C73.4654 10.2137 74.2038 9.48232 74.2154 7.24231H74.25V0.373743H79.3731V7.04803C79.3615 7.82517 79.35 8.53374 79.3269 9.09374C79.1538 13.2652 77.7808 14.5337 73.2462 14.6709C71.7692 14.728 67.8462 14.728 64.7077 14.728H64.0962V23.2537H58.0615V10.2937H64.6962Z" fill="#464646"/>
</g>
</g>
<defs>
<clipPath id="clip0_649_5629">
<rect width="120" height="24" fill="white"/>
</clipPath>
</defs>
</svg>
