<?xml version="1.0" encoding="UTF-8"?>
<svg id="Layer_1" data-name="Layer 1" xmlns="http://www.w3.org/2000/svg" xmlns:xlink="http://www.w3.org/1999/xlink" viewBox="0 0 256 37.86">
  <defs>
    <style>
      .cls-1 {
        fill: #fff;
      }

      .cls-2 {
        fill: url(#New_Gradient_Swatch-2);
      }

      .cls-3 {
        fill: url(#New_Gradient_Swatch);
      }
    </style>
    <linearGradient id="New_Gradient_Swatch" data-name="New Gradient Swatch" x1="195.83" y1="37.86" x2="195.83" y2="3.43" gradientUnits="userSpaceOnUse">
      <stop offset="0" stop-color="#39dfdb"/>
      <stop offset=".31" stop-color="#389490"/>
      <stop offset=".76" stop-color="#39dfdb"/>
      <stop offset="1" stop-color="#389490"/>
    </linearGradient>
    <linearGradient id="New_Gradient_Swatch-2" data-name="New Gradient Swatch" x1="63.25" y1="12.03" x2="63.25" y2=".34" xlink:href="#New_Gradient_Swatch"/>
  </defs>
  <path class="cls-1" d="M123.89,37.86c-7.4-8.04-14.65-15.93-22.08-24v23.1h-4.47V2.19c7.37,7.95,14.64,15.8,21.92,23.65.08-.03.16-.06.24-.09v-1.13c0-6.92.02-13.84-.02-20.76,0-.98.24-1.34,1.25-1.26,1.03.09,2.06.02,3.16.02v35.24Z"/>
  <path class="cls-1" d="M164.78,37.86h-21.85V3.59h21.86v4.4h-17.43v10.47h13.32v4.48h-13.33v10.49h17.43v4.43Z"/>
  <path class="cls-3" d="M181.54,3.44c1.77,0,3.3-.04,4.83.03.33.02.72.39.94.71,2.63,3.84,5.23,7.7,7.84,11.56.2.29.4.57.66.94,2.19-3.24,4.33-6.41,6.48-9.58.7-1.04,1.38-2.09,2.12-3.11.18-.25.53-.53.82-.54,1.53-.05,3.06-.02,4.91-.02-3.97,5.88-7.8,11.55-11.63,17.21,3.86,5.71,7.67,11.37,11.6,17.19-1.79,0-3.36.04-4.92-.03-.33-.02-.72-.39-.94-.71-2.65-3.87-5.27-7.77-7.89-11.65-.16-.23-.33-.46-.56-.79-1.16,1.71-2.27,3.35-3.38,5-1.66,2.46-3.33,4.92-4.97,7.4-.37.56-.76.84-1.47.8-1.39-.07-2.79-.02-4.35-.02.28-.47.48-.83.71-1.17,3.41-5.08,6.82-10.17,10.27-15.24.4-.59.43-.98.01-1.58-3.47-5.09-6.9-10.2-10.34-15.31-.2-.29-.38-.59-.71-1.1Z"/>
  <path class="cls-1" d="M256,37.84c-1.54,0-2.9.04-4.26-.03-.32-.02-.76-.34-.9-.63-.8-1.71-1.56-3.45-2.27-5.2-.24-.59-.58-.78-1.21-.78-4.66.03-9.33.02-13.99,0-.59,0-.89.19-1.13.73-.74,1.7-1.58,3.36-2.3,5.08-.29.68-.66.89-1.37.86-1.25-.06-2.5-.02-3.99-.02,5.38-11.61,10.7-23.09,16.14-34.81,5.14,11.69,10.18,23.17,15.29,34.81ZM240.55,13.9c-2,4.34-3.94,8.54-5.93,12.84h11.64c-1.9-4.27-3.75-8.43-5.71-12.84Z"/>
  <path class="cls-1" d="M30.21,8.59c-1.06.94-2.12,1.89-3.26,2.9-3.23-3.3-7.12-4.79-11.68-4.1-3.24.49-5.88,2.15-7.94,4.71-4.28,5.32-3.73,13.06,1.3,17.82,4.73,4.47,13.03,5.22,18.9-1.38,1.11.88,2.22,1.77,3.32,2.65-3.14,4.73-10.25,7.89-17.36,6.24C5.6,35.6.92,29.01.14,22.58-.98,13.34,4.72,6.37,11.06,3.91c6.66-2.58,15.02-.57,19.15,4.67Z"/>
  <g>
    <path class="cls-1" d="M56.84,4.09c0,1.5.05,2.9-.03,4.29-.02.33-.4.72-.72.94-4.02,2.78-6.04,6.59-5.99,11.48.08,6.55,5.56,12.21,12.18,12.61,6.49.4,12.49-4.4,13.45-10.81.86-5.71-1.19-10.16-5.96-13.37-.49-.33-.75-.65-.73-1.28.05-1.29.02-2.58.02-3.88,5.29,1.44,11.9,8.08,11.35,17.28-.55,9.15-7.93,16.34-17.05,16.51-9.3.17-16.36-6.62-17.54-14.98-1.44-10.22,5.62-17.19,11.02-18.79Z"/>
    <path class="cls-2" d="M66.09.02v12.34h-5.67V.02h5.67Z"/>
  </g>
</svg>