<svg width="30" height="30" viewBox="0 0 30 30" fill="none" xmlns="http://www.w3.org/2000/svg">
<path d="M29.3294 25.1537C28.0801 28.3958 24.9784 29.9961 21.6121 29.9969L8.47193 30C7.20848 30 6.04319 29.7802 4.88653 29.3447C1.5799 28.0976 0 24.9489 0 21.5309V8.39764C0.00157048 7.17018 0.223007 6.04081 0.638398 4.92008C1.87279 1.5932 5.03337 0 8.47193 0L21.6121 0.00156965C22.841 0.00156965 23.9702 0.222106 25.0915 0.638064C28.4256 1.87495 30 5.02289 30 8.46749V21.5309C29.9984 22.8086 29.7778 23.9898 29.3294 25.1537ZM23.5642 6.62708C22.3055 5.24735 20.1971 5.32191 19.0082 6.64905C17.8163 7.97933 17.9976 10.0081 19.4354 11.1265C18.8276 12.6616 17.4472 13.8428 15.7841 13.8428H12.4743C11.5187 13.8428 10.6675 14.0759 9.83039 14.5609L9.82489 11.5503C11.2352 10.9797 12.0157 9.53721 11.7102 8.06566C11.4158 6.64905 10.1516 5.6225 8.70436 5.6225C7.24539 5.6225 5.9843 6.65847 5.69297 8.06017C5.3883 9.5278 6.15234 10.9578 7.57362 11.5495V18.0879C6.05968 18.8005 5.31056 20.4063 5.75344 21.9908C6.16569 23.4655 7.6011 24.5054 9.18728 24.3799C10.7735 24.2543 12.0314 23.0354 12.2065 21.4454C12.3816 19.8553 11.4574 18.4497 9.91912 17.9576C10.2426 16.778 11.2862 16.0819 12.4719 16.0897L15.4291 16.1094C18.2513 16.1282 20.691 14.3576 21.6302 11.7387C22.8119 11.6107 23.7684 10.8314 24.1508 9.85036C24.5897 8.72413 24.3769 7.51785 23.5634 6.62629L23.5642 6.62708Z" fill="#00A5C5"/>
</svg>
