<svg width="64" height="64" viewBox="0 0 64 64" fill="none" xmlns="http://www.w3.org/2000/svg">
<rect width="64" height="64" rx="8" fill="#00A5C5"/>
<path fill-rule="evenodd" clip-rule="evenodd" d="M32.0673 49.9982C27.2138 49.9283 22.5812 47.9577 19.1645 44.5097C17.4946 42.8251 16.1778 40.824 15.2913 38.6238C14.4048 36.4236 13.9665 34.0685 14.002 31.6967C14.1143 26.9618 16.0974 22.4642 19.5174 19.1879C22.9801 15.8702 27.5868 14.0125 32.3823 14H32.6991C37.1002 14.0218 41.3388 15.665 44.6046 18.6154L40.0235 22.7844C37.9751 20.9636 35.3282 19.9602 32.5875 19.9655C29.3739 19.9537 26.2807 21.188 23.9581 23.4091C22.8221 24.4947 21.9121 25.7942 21.2803 27.2329C20.6486 28.6716 20.3076 30.2211 20.277 31.7921C20.2515 33.3628 20.5378 34.923 21.1193 36.3823C21.7008 37.8416 22.566 39.1711 23.6647 40.2939C25.9114 42.5889 28.9597 43.9244 32.1699 44.0201H32.4273C34.9654 44.1497 37.4674 43.3829 39.4781 41.86C41.479 40.3524 42.8675 38.1724 43.3878 35.7217L43.4652 35.5111H32.3967V29.3728H49.8176C49.9532 30.4852 50.0132 31.6007 49.9976 32.7191C49.8194 43.0535 42.7668 50 32.4543 50L32.0673 49.9982Z" fill="white"/>
</svg>
