<svg width="32" height="32" viewBox="0 0 32 32" fill="none" xmlns="http://www.w3.org/2000/svg">
<path d="M31.9992 24.8904C31.9992 28.843 28.8357 32.0008 24.9117 32H7.07658C3.1995 32 0 28.8773 0 24.9858V7.01416C0 3.12019 3.1995 0 7.07658 0H24.9125C28.8374 0 31.9975 3.15872 31.9983 7.08534L32 24.8895L31.9992 24.8904ZM15.2688 21.7091L18.8318 11.027C19.0429 10.3939 18.7028 9.76673 18.1241 9.5825C17.5453 9.39827 16.9188 9.6989 16.7136 10.3144L13.1598 20.973C12.9555 21.5851 13.2628 22.1956 13.8215 22.4016C14.3801 22.6076 15.0519 22.3589 15.2688 21.7099V21.7091ZM9.84809 20.3591C10.3213 20.8314 11.0316 20.7645 11.4386 20.3424C11.8457 19.9203 11.8566 19.2144 11.4101 18.7681L8.64199 15.9987L11.3766 13.2679C11.8381 12.8074 11.8825 12.1182 11.4386 11.6559C11.0115 11.2113 10.2937 11.1912 9.83217 11.6534L6.27755 15.2099C5.83783 15.6495 5.83615 16.3488 6.27755 16.7893L9.84892 20.3591H9.84809ZM22.2156 20.2913L25.6789 16.8269C26.1597 16.3463 26.1613 15.6529 25.6789 15.1714L22.1586 11.6551C21.6938 11.1912 20.9776 11.2096 20.5488 11.6576C20.1309 12.0947 20.1334 12.7831 20.5806 13.2303L23.348 15.9979L20.5471 18.8041C20.0865 19.2655 20.1694 20.015 20.6167 20.4044C21.0957 20.8214 21.7398 20.7653 22.2147 20.2905L22.2156 20.2913Z" fill="#00A5C5"/>
</svg>
