<svg width="24" height="24" viewBox="0 0 24 24" fill="none" xmlns="http://www.w3.org/2000/svg">
<rect width="24" height="24" rx="12" fill="#00A5C5"/>
<path fill-rule="evenodd" clip-rule="evenodd" d="M12.8082 9.4368V10.7944C13.0925 10.3613 13.4844 10.0095 13.9455 9.77337C14.4066 9.53721 14.9211 9.42483 15.4386 9.4472C18.2026 9.4472 18.8002 11.1752 18.8002 13.4232V18H16.2402V13.9424C16.2402 12.9744 16.045 11.7296 14.5378 11.7296C13.0762 11.7296 12.8266 12.7832 12.8266 13.8704V18H10.2746V9.4368H12.8082ZM8.56024 7.2848C8.55992 7.5384 8.48475 7.78627 8.34414 7.99732C8.20353 8.20838 8.00375 8.37322 7.76984 8.4712C7.53602 8.56839 7.27857 8.59381 7.03027 8.54423C6.78196 8.49465 6.55401 8.37232 6.37544 8.1928C6.19653 8.01317 6.07473 7.78465 6.02535 7.53597C5.97597 7.2873 6.00122 7.02958 6.09793 6.79522C6.19463 6.56086 6.35847 6.36033 6.56884 6.21883C6.77921 6.07734 7.02671 6.0012 7.28024 6C7.44873 6 7.61557 6.03327 7.77118 6.09789C7.92679 6.16252 8.06811 6.25723 8.18704 6.3766C8.30596 6.49597 8.40014 6.63764 8.46418 6.79349C8.52823 6.94934 8.56087 7.1163 8.56024 7.2848Z" fill="white"/>
<path d="M8.56 9.44727H6V18.0001H8.56V9.44727Z" fill="white"/>
</svg>
