<svg width="73" height="70" viewBox="0 0 73 70" fill="none" xmlns="http://www.w3.org/2000/svg">
<g clip-path="url(#clip0_649_5676)">
<path d="M36.3893 23.5236L36.3513 23.5128L36.3133 23.525L36.331 23.5426C35.799 22.5807 35.2807 21.6108 34.7325 20.6571C33.1069 17.8324 31.4704 15.0146 29.8325 12.1967C29.6588 11.8978 29.5476 11.6624 29.766 11.289C31.9141 7.6243 34.035 3.94337 36.1641 0.269195C36.2075 0.193439 36.2699 0.128505 36.3676 0.00134277C37.3107 1.62739 38.2334 3.21421 39.1534 4.80239C40.3693 6.90327 41.5647 9.01632 42.8104 11.0983C43.0859 11.5582 43.0506 11.8748 42.7955 12.3117C40.7736 15.764 38.7749 19.2299 36.7747 22.6944C36.6187 22.9649 36.5033 23.2571 36.369 23.5398L36.388 23.5223L36.3893 23.5236Z" fill="#464646"/>
<path d="M36.3135 23.5236C34.2143 27.1383 32.0947 30.7421 30.0308 34.377C29.6576 35.0345 29.2519 35.2469 28.5056 35.2401C24.6043 35.1995 20.7031 35.2212 16.8005 35.2212H15.9768C16.0867 34.9899 16.1573 34.8113 16.2523 34.6476C18.3121 31.0871 20.3774 27.5306 22.4291 23.966C22.615 23.644 22.8036 23.4736 23.208 23.4749C27.4485 23.4898 31.6876 23.4844 35.9281 23.4871C36.0611 23.4871 36.1941 23.5209 36.3297 23.5399L36.3135 23.5236Z" fill="#464646"/>
<path d="M36.3718 23.5399C36.5957 23.5209 36.8183 23.4857 37.0422 23.4844C41.1279 23.4817 45.2137 23.4898 49.2995 23.4709C49.7867 23.4682 50.0635 23.6075 50.3118 24.0404C52.4232 27.7294 54.5618 31.405 56.7343 35.1562C56.5131 35.1819 56.3516 35.2158 56.1901 35.2158C52.0365 35.2185 47.8829 35.209 43.7292 35.232C43.2584 35.2347 43.0575 35.0318 42.8513 34.6747C40.7059 30.9518 38.547 27.237 36.3922 23.5196L36.3732 23.5385L36.3718 23.5399Z" fill="#464646"/>
<path d="M24.573 50.1045V57.1742H22.965V52.5896C22.9121 52.5788 22.8591 52.5666 22.8062 52.5558C22.163 53.6164 21.5198 54.6769 20.8264 55.8187C20.1276 54.6661 19.483 53.6042 18.8371 52.5422C18.7883 52.5544 18.7394 52.5666 18.6906 52.5788V57.1972H17.1111V50.1072C17.7421 50.1072 18.3486 50.0775 18.947 50.1262C19.1112 50.1397 19.2971 50.3643 19.403 50.5347C19.8711 51.2963 20.3135 52.0728 20.8251 52.9481C21.2064 52.2839 21.604 51.7333 21.8523 51.1232C22.2037 50.256 22.7845 49.9544 23.6787 50.0978C23.9583 50.1424 24.2514 50.1045 24.5716 50.1045H24.573Z" fill="#464646"/>
<path d="M11.2587 47.6425H9.63989V40.5417C10.237 40.5417 10.8394 40.5119 11.4351 40.5606C11.6048 40.5742 11.8015 40.7852 11.9074 40.9543C12.3891 41.7308 12.8423 42.5235 13.3607 43.4029C13.8288 42.5831 14.278 41.8607 14.6606 41.1045C14.8859 40.6594 15.1708 40.4822 15.6661 40.5295C16.1085 40.5728 16.5576 40.539 17.0584 40.539V47.6276H15.4979V43.0295C15.4477 43.02 15.3974 43.0105 15.3472 43.0024C14.6973 44.0671 14.0486 45.1317 13.3566 46.2667C12.6537 45.1101 12.001 44.04 11.2615 42.8225V47.6425H11.2587Z" fill="#464646"/>
<path d="M44.0983 43.9507C45.1011 44.5338 45.4295 45.2467 45.1798 46.2572C44.9668 47.1244 44.2639 47.6439 43.1932 47.6655C42.0466 47.6885 40.9 47.6709 39.7126 47.6709V40.4876C41.0859 40.5498 42.455 40.5607 43.8106 40.6932C44.4918 40.7595 44.9098 41.2722 45.021 41.9743C45.1296 42.6588 45.0373 43.2771 44.4281 43.7208C44.3222 43.7979 44.2137 43.8709 44.0983 43.9521V43.9507ZM41.3261 46.2992C41.8987 46.2992 42.3926 46.3222 42.8838 46.2924C43.3479 46.264 43.5311 45.9488 43.5447 45.5132C43.5583 45.0654 43.3601 44.7597 42.9042 44.7286C42.3791 44.6921 41.8498 44.7205 41.3274 44.7205V46.2992H41.3261ZM41.3125 43.3785C41.8634 43.3785 42.375 43.4664 42.8309 43.3433C43.0711 43.2784 43.3059 42.8672 43.3723 42.5736C43.4606 42.1827 43.1593 41.9608 42.7658 41.9473C42.2868 41.931 41.8064 41.9432 41.3138 41.9432V43.3785H41.3125Z" fill="#464646"/>
<path d="M48.9954 54.4862C49.5518 55.3818 50.0918 56.2516 50.7038 57.2351C50.0715 57.2351 49.5613 57.2676 49.0592 57.2175C48.8855 57.1999 48.6887 57.0024 48.5802 56.8374C48.226 56.2922 47.8868 55.7335 47.5815 55.1586C47.3711 54.7608 47.1119 54.5782 46.6031 54.7717V57.1932H45.0317V50.0464C46.3751 50.1167 47.7402 50.1086 49.0809 50.2899C49.8937 50.3995 50.2818 51.107 50.3646 51.9146C50.4555 52.7993 50.3646 53.6313 49.5355 54.1846C49.3699 54.2941 49.1894 54.3794 48.994 54.4876L48.9954 54.4862ZM46.6465 51.4587V53.2823C47.3372 53.1943 48.0835 53.5596 48.5585 52.8926C48.7227 52.6627 48.7254 52.1324 48.5666 51.897C48.108 51.2125 47.3494 51.5615 46.6465 51.46V51.4587Z" fill="#464646"/>
<path d="M25.6301 53.7517C25.6586 53.3932 25.6803 53.1916 25.6898 52.99C25.8215 50.0071 28.0849 49.6974 29.9493 50.1668C30.7458 50.367 31.2846 50.923 31.5288 51.7022C31.9359 53.0022 31.944 54.3185 31.5274 55.6185C31.2248 56.5655 30.5301 57.1039 29.5585 57.2473C29.1175 57.3122 28.6575 57.319 28.2124 57.2784C26.8555 57.1566 26.1227 56.5249 25.8201 55.2005C25.7007 54.6783 25.6776 54.1345 25.6301 53.7517ZM27.3114 53.6407C27.348 54.0033 27.3548 54.3875 27.4294 54.7568C27.5882 55.5414 28.0319 55.8755 28.8027 55.8431C29.5409 55.812 29.9629 55.4683 30.0416 54.6891C30.1094 54.0263 30.1108 53.3458 30.047 52.683C29.971 51.8862 29.5042 51.4993 28.7633 51.4857C28.0184 51.4722 27.5746 51.8348 27.4199 52.6207C27.3548 52.9481 27.3467 53.2863 27.31 53.6407H27.3114Z" fill="#464646"/>
<path d="M43.8894 53.6935C43.8894 53.8288 43.8907 53.9641 43.8894 54.098C43.8419 56.9118 42.0819 57.6775 39.7167 57.181C38.7112 56.97 38.0748 56.2395 37.9527 55.2641C37.8238 54.2319 37.8089 53.1578 37.9405 52.127C38.0979 50.9014 38.8781 50.2615 40.1103 50.0586C40.3532 50.018 40.6028 49.995 40.8498 49.995C42.6803 49.9936 43.7062 50.9284 43.8636 52.7493C43.8907 53.0618 43.8677 53.3783 43.8677 53.6922C43.8758 53.6922 43.8826 53.6922 43.8907 53.6922L43.8894 53.6935ZM42.2705 53.6326C42.2244 53.2769 42.2013 52.871 42.1145 52.4801C41.9611 51.7956 41.4984 51.4668 40.7942 51.4898C40.0845 51.5128 39.6218 51.8551 39.5458 52.5612C39.4711 53.2444 39.463 53.9451 39.5254 54.6296C39.6028 55.4697 40.0112 55.8133 40.7765 55.8417C41.5676 55.8702 41.991 55.5238 42.1538 54.6797C42.2176 54.351 42.2298 54.0141 42.2705 53.6313V53.6326Z" fill="#464646"/>
<path d="M56.315 47.6492H54.7368V40.5931H56.3014V43.3149H58.767V40.5823H60.379V47.633H58.7765V44.8977H56.315V47.6492Z" fill="#464646"/>
<path d="M36.7273 40.5755H38.2661C38.2891 40.7027 38.3312 40.8271 38.3312 40.9529C38.3353 42.3707 38.3529 43.7897 38.3285 45.2061C38.3013 46.7686 37.6432 47.5356 36.0854 47.7223C35.4762 47.7953 34.8194 47.7331 34.2196 47.5856C33.263 47.3516 32.6673 46.6022 32.6442 45.6241C32.6035 43.9615 32.6334 42.2989 32.6334 40.5863H34.2508C34.2508 42.0663 34.2481 43.5232 34.2508 44.9802C34.2536 46.0178 34.7936 46.4479 35.81 46.2559C36.4179 46.1409 36.7001 45.8027 36.6947 45.1831C36.6825 43.7884 36.6906 42.3923 36.6934 40.9976C36.6934 40.8677 36.7137 40.7378 36.7273 40.5755Z" fill="#464646"/>
<path d="M31.381 41.9784C30.5193 41.9784 29.7336 41.954 28.952 41.9946C28.7268 42.0068 28.511 42.207 28.2912 42.322C28.4269 42.5317 28.5137 42.8252 28.7051 42.9362C29.3076 43.2838 29.9602 43.5463 30.5749 43.875C31.3077 44.266 31.7148 44.8679 31.6999 45.7283C31.6809 46.7767 31.1924 47.5059 30.157 47.6303C29.1624 47.7507 28.1406 47.6669 27.131 47.6344C27.0116 47.6303 26.8189 47.399 26.7985 47.2529C26.7497 46.9025 26.7823 46.54 26.7823 46.122C27.378 46.1774 27.9248 46.2478 28.4744 46.2748C28.8313 46.2924 29.2017 46.2897 29.5464 46.2113C29.7486 46.1653 30.0566 45.9542 30.0607 45.8108C30.0661 45.5944 29.9005 45.2792 29.7133 45.171C29.1108 44.8233 28.4567 44.5649 27.8353 44.2484C26.9858 43.8155 26.5719 43.1337 26.6669 42.161C26.7538 41.2763 27.2396 40.677 28.2206 40.5674C29.1325 40.466 30.0634 40.5241 30.9847 40.558C31.1218 40.5634 31.3348 40.8069 31.362 40.9665C31.4203 41.3101 31.3796 41.6713 31.3796 41.977L31.381 41.9784Z" fill="#464646"/>
<path d="M51.3443 57.2676V55.7998C52.1666 55.7998 52.9659 55.8404 53.7597 55.7795C54.0663 55.7565 54.3567 55.5062 54.6553 55.3601C54.4517 55.0991 54.2984 54.7568 54.0338 54.5958C53.4611 54.2468 52.8085 54.0263 52.229 53.6867C51.347 53.17 51.0498 52.4192 51.2642 51.4546C51.4501 50.6213 51.9237 50.1749 52.9577 50.091C53.913 50.0126 54.8792 50.0748 55.8833 50.0748V51.5196C55.0895 51.5196 54.3079 51.4898 53.5331 51.5372C53.2902 51.552 53.0608 51.7725 52.8261 51.8997C52.9957 52.1148 53.1233 52.4016 53.3431 52.5288C53.9252 52.8656 54.5684 53.0983 55.1519 53.4338C56.1072 53.983 56.4193 54.7582 56.1927 55.8336C56.0217 56.6426 55.3405 57.1972 54.2889 57.2568C53.3295 57.3109 52.3634 57.2689 51.347 57.2689L51.3443 57.2676Z" fill="#464646"/>
<path d="M53.5059 41.9797C52.6375 41.9797 51.8491 41.9526 51.0661 41.9973C50.8463 42.0095 50.6373 42.2286 50.4229 42.3531C50.5532 42.5452 50.64 42.8144 50.8219 42.9172C51.4461 43.2703 52.111 43.553 52.746 43.8871C53.3838 44.2226 53.7637 44.7462 53.8492 45.478C53.9768 46.5765 53.4082 47.4896 52.2914 47.6303C51.2995 47.7561 50.2777 47.6682 49.2709 47.6303C49.1447 47.6249 48.952 47.3584 48.9235 47.1906C48.8679 46.8673 48.9072 46.5264 48.9072 46.1219C49.488 46.1733 50.0145 46.2315 50.5423 46.2613C50.8775 46.2802 51.2303 46.3181 51.5451 46.2342C51.807 46.1639 52.0241 45.9271 52.2616 45.7648C52.0811 45.5335 51.9468 45.2223 51.7107 45.0843C51.1503 44.757 50.5274 44.5365 49.9561 44.2253C48.9995 43.7032 48.6969 43.0416 48.8516 41.9932C48.9547 41.2952 49.3401 40.7568 50.0145 40.6716C51.0539 40.5417 52.1123 40.5633 53.164 40.5579C53.278 40.5579 53.472 40.7947 53.491 40.9381C53.5385 41.3087 53.5073 41.6875 53.5073 41.977L53.5059 41.9797Z" fill="#464646"/>
<path d="M24.2854 42.0784V47.6262H22.6502V42.0866H20.7722V40.6012H26.1837V42.0798H24.2867L24.2854 42.0784Z" fill="#464646"/>
<path d="M33.9835 51.6292H32.1204V50.1533H37.4898V51.575H35.6362V57.1851H33.9848V51.6278L33.9835 51.6292Z" fill="#464646"/>
<path d="M-0.000107891 68.0195V62.5881C0.976898 62.5881 1.93898 62.5218 2.88749 62.6084C3.68945 62.6814 4.315 63.205 4.43984 63.9977C4.57011 64.8175 4.58504 65.6914 4.4507 66.5085C4.30143 67.4189 3.57953 67.9276 2.67309 68.0047C1.80735 68.0777 0.930762 68.0209 -0.00146484 68.0209L-0.000107891 68.0195ZM0.971471 67.1226C1.85349 66.9995 2.82778 67.4419 3.34478 66.4652C3.77222 65.6576 3.80479 64.7377 3.27015 63.9652C2.68666 63.1211 1.77479 63.5797 0.970114 63.4634V67.124L0.971471 67.1226Z" fill="#464646"/>
<path d="M48.6319 68.0222H47.6644C47.6644 67.2971 47.6549 66.5869 47.6671 65.8767C47.6766 65.3423 47.5083 64.9933 46.8963 65.038C46.3848 65.0758 45.9071 65.0867 45.9953 65.8564C46.074 66.5409 46.0116 67.2417 46.0116 67.9884H45.0767V64.1465C46.1419 64.6781 47.2288 63.7298 48.2641 64.4279C48.3456 64.4833 48.5193 64.417 48.6468 64.3886C48.9318 64.3237 49.2099 64.2209 49.4976 64.1803C50.7229 64.0085 51.2752 64.4887 51.2929 65.732C51.3037 66.4706 51.2942 67.2078 51.2942 67.9938H50.2602C50.2602 67.2322 50.2426 66.4949 50.2656 65.7604C50.2819 65.2301 50.0268 64.9974 49.5343 65.042C49.0946 65.0826 48.5464 64.9879 48.6156 65.7671C48.6807 66.4976 48.6292 67.2376 48.6292 68.0249L48.6319 68.0222Z" fill="#464646"/>
<path d="M44.0616 68.0208H43.1117C43.086 67.592 43.0602 67.1754 43.029 66.6437H40.486C40.4453 67.0982 40.4087 67.5136 40.3666 67.9843H39.4575C39.2838 66.8818 39.4792 65.7942 39.893 64.7417C40.0735 64.2831 40.3639 63.8624 40.5105 63.3957C40.7778 62.5502 41.383 62.4203 42.1279 62.5394C42.2813 62.5637 42.4753 62.6476 42.554 62.768C43.5473 64.2615 44.1607 65.8807 44.1118 67.7029C44.1091 67.7895 44.0847 67.8747 44.0603 68.0222L44.0616 68.0208ZM41.8199 63.3943C41.7507 63.397 41.6829 63.3984 41.6137 63.4011C41.2649 64.1613 40.9162 64.9203 40.5376 65.7482H42.934C42.5364 64.9081 42.1782 64.1519 41.8199 63.3957V63.3943Z" fill="#464646"/>
<path d="M52.3445 67.9559V62.4081H53.2971V64.321C53.7625 64.2561 54.1492 64.1654 54.5373 64.1573C55.6025 64.1357 56.2335 64.8405 56.2606 66.0404C56.2891 67.3134 55.7165 68.0912 54.6594 68.1047C53.9213 68.1142 53.1831 68.0127 52.3458 67.9546L52.3445 67.9559ZM53.3269 67.0293C54.7802 67.4865 55.4193 67.078 55.2551 65.8699C55.1697 65.2355 54.8236 65.0055 54.1167 65.0217C53.4884 65.0366 53.236 65.2963 53.3174 65.9267C53.3636 66.2771 53.3256 66.6397 53.3256 67.0293H53.3269Z" fill="#464646"/>
<path d="M18.4832 40.5768H20.0043V47.6262H18.4832V40.5768Z" fill="#464646"/>
<path d="M47.7592 47.6411H46.2109V40.5891H47.7592V47.6411Z" fill="#464646"/>
<path d="M61.7415 40.5715H63.249V47.6276H61.7415V40.5715Z" fill="#464646"/>
<path d="M64.4634 66.1364C64.4634 64.8188 65.1283 64.1546 66.4527 64.1505C67.811 64.1465 68.5098 64.8323 68.5003 66.1621C68.4922 67.4337 67.7662 68.1318 66.4595 68.125C65.1405 68.1183 64.4634 67.4432 64.4634 66.1364ZM67.465 66.131C67.4677 65.3599 67.1488 65.0028 66.4608 65.0055C65.8108 65.0082 65.4919 65.3613 65.477 66.0904C65.4621 66.8493 65.7946 67.2457 66.454 67.2552C67.1312 67.2646 67.4622 66.8953 67.465 66.131Z" fill="#464646"/>
<path d="M25.3125 66.1215C25.3152 64.812 25.9883 64.1492 27.3167 64.1505C28.6683 64.1505 29.3644 64.8445 29.3494 66.177C29.3359 67.4446 28.6018 68.1399 27.2937 68.125C25.9774 68.1101 25.3098 67.4351 25.3125 66.1215ZM28.3141 66.1432C28.3209 65.364 28.0115 65.0109 27.3235 65.0068C26.6505 65.0028 26.318 65.3816 26.3262 66.1432C26.3343 66.8683 26.6545 67.2376 27.2909 67.2552C27.9667 67.2741 28.3087 66.9034 28.3141 66.1432Z" fill="#464646"/>
<path d="M21.931 70C21.6515 69.7809 21.4574 69.6307 21.1956 69.4264C21.4303 69.0923 21.6352 68.7514 21.889 68.4511C22.1902 68.0926 22.2282 67.8098 21.9147 67.404C21.2254 66.5139 20.8726 65.4817 20.8455 64.2845H21.6732C22.0084 65.2287 22.334 66.1432 22.7153 67.22C23.5268 66.2474 23.7236 65.2801 23.8593 64.2601H24.763C24.8688 66.683 23.0994 68.1535 21.931 70Z" fill="#464646"/>
<path d="M18.4898 66.4584H15.8885C15.9654 66.9986 16.7524 67.2651 18.2496 67.2579V68.0452C17.7163 68.0682 17.202 68.1413 16.6945 68.1034C15.2412 67.9965 14.6157 67.1159 14.8572 65.5832C15.0336 64.4685 16.05 63.9017 17.3404 64.1993C18.2754 64.4144 18.6078 65.0394 18.4884 66.4584H18.4898ZM15.841 65.7306H17.548C17.5453 65.1178 17.2359 64.9284 16.7284 64.9325C16.1979 64.9365 15.8885 65.1611 15.8424 65.7306H15.841Z" fill="#464646"/>
<path d="M30.1109 64.2642H31.111C31.111 64.9297 31.111 65.5534 31.111 66.1784C31.1123 67.2119 31.3607 67.4067 32.3729 67.1672C32.5032 67.1361 32.6308 67.0969 32.8343 67.0401V64.2709H33.7828V67.96C32.8981 68.0073 32.0228 68.102 31.1503 68.0844C30.4786 68.0696 30.1557 67.5609 30.1231 66.9467C30.077 66.0769 30.1109 65.203 30.1109 64.2655V64.2642Z" fill="#464646"/>
<path d="M69.3255 64.3277C70.1844 64.2655 70.966 64.1762 71.7476 64.1613C72.4899 64.1465 72.9648 64.6254 72.9865 65.3789C73.011 66.2298 72.992 67.0807 72.992 67.987H72.0258C72.0258 67.312 72.0624 66.6234 72.0082 65.9403C71.9851 65.6467 71.825 65.1719 71.6391 65.1245C71.2564 65.0271 70.81 65.1408 70.4015 65.2233C70.3323 65.2368 70.2903 65.5331 70.2875 65.6981C70.2753 66.4557 70.2821 67.2119 70.2821 68.0046H69.3228V64.3277H69.3255Z" fill="#464646"/>
<path d="M12.541 67.0333C12.8341 66.1324 13.1285 65.2314 13.442 64.2682H14.2752C14.2738 65.6481 13.826 66.8318 12.9508 67.8017C12.7622 68.01 11.9751 68.0357 11.7987 67.8423C10.9018 66.8602 10.4404 65.6602 10.4309 64.3115C11.3726 64.1302 11.3238 64.1411 11.511 64.973C11.6698 65.6778 11.9602 66.3529 12.1936 67.0401C12.3089 67.0374 12.4256 67.0347 12.541 67.032V67.0333Z" fill="#464646"/>
<path d="M59.5227 65.1151C59.2324 65.0785 59.0573 65.0555 58.8416 65.0285V64.2845C59.0492 64.2439 59.2419 64.2073 59.4712 64.1627C59.5037 63.8516 59.535 63.5485 59.5689 63.2252H60.4794C60.4984 63.5472 60.5147 63.8326 60.535 64.1668C60.9204 64.2019 61.2895 64.2358 61.6898 64.2723V65.0366C61.3234 65.0555 60.9543 65.0758 60.5147 65.0988C60.5147 65.6629 60.4767 66.2014 60.5377 66.7276C60.5567 66.894 60.8186 67.1023 61.0086 67.1632C61.2501 67.2389 61.5337 67.1808 61.8309 67.1808V68.0533C61.3356 68.0533 60.8241 68.1088 60.3315 68.0384C59.7982 67.9627 59.5309 67.5704 59.5268 67.0279C59.5214 66.4002 59.5268 65.7739 59.5268 65.1164L59.5227 65.1151Z" fill="#464646"/>
<path d="M35.852 68.01H34.9185V64.3115C35.7068 64.2723 36.479 64.2344 37.2958 64.1952V64.9149C37.2511 64.9419 37.1981 64.9947 37.1398 65.0028C36.2813 65.1363 35.852 65.6449 35.852 66.5287V68.0087V68.01Z" fill="#464646"/>
<path d="M7.94362 64.1871V64.9325C7.88255 64.9636 7.84592 64.9974 7.80656 65.0014C6.92183 65.1106 6.47946 65.6066 6.47946 66.4895V67.9992H5.52417V64.3102C6.3207 64.2696 7.09824 64.2304 7.94362 64.1871Z" fill="#464646"/>
<path d="M63.5855 68.0074H62.637V64.2737H63.5855V68.0074Z" fill="#464646"/>
<path d="M57.1658 64.2574H58.0736V68.0006H57.1658V64.2574Z" fill="#464646"/>
<path d="M8.70752 64.2507H9.60311V67.9844H8.70752V64.2507Z" fill="#464646"/>
<path d="M56.9663 62.9818C57.1631 62.7667 57.368 62.5435 57.6394 62.2472C57.8687 62.515 58.0682 62.7491 58.3287 63.0535C58.1048 63.2361 57.87 63.4295 57.5905 63.6581C57.4114 63.4633 57.2078 63.2442 56.9663 62.9818Z" fill="#464646"/>
<path d="M9.12678 63.7258C8.89338 63.4877 8.69391 63.2848 8.44287 63.0277C8.68034 62.7721 8.88524 62.5516 9.18105 62.2323C9.3846 62.5204 9.56236 62.7734 9.75369 63.0426C9.60171 63.2077 9.38595 63.4417 9.12678 63.7244V63.7258Z" fill="#464646"/>
<path d="M63.0875 62.2999C63.3833 62.5664 63.5977 62.7612 63.8623 62.9993C63.5977 63.2428 63.3833 63.439 63.0536 63.7434C62.8799 63.4782 62.7116 63.2198 62.5081 62.91C62.637 62.7748 62.8446 62.5556 63.0875 62.2999Z" fill="#464646"/>
</g>
<defs>
<clipPath id="clip0_649_5676">
<rect width="73" height="70" fill="white"/>
</clipPath>
</defs>
</svg>
