<svg width="32" height="32" viewBox="0 0 32 32" fill="none" xmlns="http://www.w3.org/2000/svg">
<path d="M32 2.08157V6.14687H0V2.08157C0 0.932542 0.930728 0 2.07752 0H29.9225C31.0693 0 32 0.932542 32 2.08157ZM5.7755 3.63025C6.15361 3.63025 6.35305 3.30761 6.32189 3.01203C6.2928 2.73726 6.06012 2.52702 5.74018 2.52702H3.09342C2.74648 2.52702 2.49925 2.76224 2.49718 3.07448C2.4951 3.38671 2.7444 3.6365 3.09342 3.63442L5.7755 3.63025ZM11.2581 3.63025C11.6112 3.63025 11.8045 3.28471 11.7774 3.0266C11.7504 2.76848 11.5344 2.5291 11.2269 2.5291H8.51574C8.18334 2.5291 7.95274 2.7893 7.95274 3.07448C7.95274 3.35965 8.18126 3.6365 8.51574 3.6365L11.2622 3.63234L11.2581 3.63025ZM28.2148 3.63234C28.622 3.63234 28.8048 3.30345 28.7736 3.00995C28.7466 2.73518 28.5202 2.52494 28.1836 2.52494H15.9429C15.5959 2.52494 15.3819 2.79346 15.3799 3.07239C15.3799 3.36589 15.5959 3.63234 15.9429 3.63234H28.2148Z" fill="#00A5C5"/>
<path d="M32 7.18771V29.9184C32 31.0675 31.0693 32 29.9225 32H2.07752C0.930728 32 0 31.0675 0 29.9184V7.18771H32ZM21.9552 27.535C22.3292 27.535 22.4974 27.2457 22.5182 26.9647L22.5099 25.0163C22.4995 22.6704 21.2509 20.5722 19.2607 19.3732C20.7752 17.5248 20.5383 14.927 18.8742 13.3783C17.2018 11.8234 14.6008 11.84 12.9492 13.4054C11.2975 14.9707 11.1043 17.5789 12.5981 19.3774C10.4645 20.6388 9.32598 22.8994 9.33221 25.339L9.33844 26.9605C9.34675 27.3081 9.57943 27.5371 9.943 27.5371H21.9531L21.9552 27.535Z" fill="#00A5C5"/>
<path d="M10.4499 26.44L10.4416 25.0937C10.4457 23.014 11.6029 21.1233 13.4581 20.1884C14.9643 21.2168 16.8902 21.2189 18.3984 20.1884C20.2495 21.1191 21.4212 23.0119 21.4129 25.0937L21.4088 26.44H10.4499Z" fill="#00A5C5"/>
<path d="M15.9283 19.854C17.7194 19.854 19.1713 18.4019 19.1713 16.6108C19.1713 14.8196 17.7194 13.3676 15.9283 13.3676C14.1373 13.3676 12.6853 14.8196 12.6853 16.6108C12.6853 18.4019 14.1373 19.854 15.9283 19.854Z" fill="#00A5C5"/>
</svg>
