<svg width="120" height="42" viewBox="0 0 120 42" fill="none" xmlns="http://www.w3.org/2000/svg">
<path d="M99.2388 36.8757C95.5495 36.8757 92.1488 35.6267 89.4295 33.5331C92.1891 30.0083 93.8408 25.5754 93.8408 20.7612C93.8408 15.9475 92.1891 11.5146 89.4295 7.98934C92.1488 5.89619 95.5495 4.64678 99.2388 4.64678C108.124 4.64678 115.353 11.8758 115.353 20.7612C115.353 29.6471 108.124 36.8757 99.2388 36.8757ZM63.2699 33.5331C66.0299 30.0083 67.6817 25.5754 67.6817 20.7612C67.6817 15.9475 66.0299 11.5146 63.2703 7.98934C65.9892 5.89619 69.3907 4.64678 73.0796 4.64678C76.7689 4.64678 80.1695 5.89619 82.8889 7.98934C80.1293 11.5146 78.4775 15.9475 78.4775 20.7612C78.4775 25.5754 80.1293 30.0083 82.8889 33.5331C80.1695 35.6267 76.7689 36.8757 73.0796 36.8757C69.3907 36.8757 65.9892 35.6267 63.2699 33.5331ZM37.1107 33.5331C39.8707 30.0083 41.5225 25.5754 41.5225 20.7612C41.5225 15.9475 39.8707 11.5146 37.1111 7.98934C39.83 5.89619 43.2316 4.64678 46.9204 4.64678C50.6093 4.64678 54.0108 5.89619 56.7297 7.98934C53.9701 11.5146 52.3183 15.9475 52.3183 20.7612C52.3183 25.5754 53.9701 30.0083 56.7297 33.5331C54.0108 35.6267 50.6093 36.8757 46.9204 36.8757C43.2316 36.8757 39.83 35.6267 37.1107 33.5331ZM4.64678 20.7612C4.64678 11.8758 11.8758 4.64678 20.7612 4.64678C24.4501 4.64678 27.8516 5.89619 30.5705 7.98934C27.8109 11.5146 26.1592 15.9475 26.1592 20.7612C26.1592 25.5754 27.8109 30.0083 30.5705 33.5331C27.8516 35.6267 24.4501 36.8757 20.7612 36.8757C11.8758 36.8757 4.64678 29.6471 4.64678 20.7612ZM33.8408 30.1565C31.9337 27.5095 30.806 24.2657 30.806 20.7612C30.806 17.2572 31.9337 14.013 33.8408 11.3659C35.748 14.013 36.8757 17.2572 36.8757 20.7612C36.8757 24.2657 35.748 27.5095 33.8408 30.1565ZM60 30.1565C58.0929 27.5095 56.9651 24.2657 56.9651 20.7612C56.9651 17.2572 58.0929 14.013 60 11.3659C61.9071 14.013 63.0349 17.2572 63.0349 20.7612C63.0349 24.2657 61.9071 27.5095 60 30.1565ZM86.1592 30.1565C84.252 27.5095 83.1243 24.2657 83.1243 20.7612C83.1243 17.2572 84.252 14.013 86.1592 11.3659C88.0663 14.013 89.1941 17.2572 89.1941 20.7612C89.1941 24.2657 88.0663 27.5095 86.1592 30.1565ZM99.2388 0C94.2843 0 89.7318 1.74685 86.1592 4.65342C82.5866 1.74685 78.034 0 73.0796 0C68.1251 0 63.5726 1.74685 60 4.65342C56.4274 1.74685 51.8745 0 46.9204 0C41.966 0 37.4134 1.74685 33.8408 4.65342C30.2682 1.74685 25.7153 0 20.7612 0C9.31349 0 0 9.3135 0 20.7612C0 32.2094 9.31349 41.5225 20.7612 41.5225C25.7153 41.5225 30.2682 39.7761 33.8408 36.8691C37.4134 39.7761 41.966 41.5225 46.9204 41.5225C51.8745 41.5225 56.4274 39.7761 60 36.8691C63.5726 39.7761 68.1251 41.5225 73.0796 41.5225C78.034 41.5225 82.5866 39.7761 86.1592 36.8691C89.7318 39.7761 94.2843 41.5225 99.2388 41.5225C110.687 41.5225 120 32.2094 120 20.7612C120 9.3135 110.687 0 99.2388 0Z" fill="#464646"/>
</svg>
