<svg width="37" height="32" viewBox="0 0 37 32" fill="none" xmlns="http://www.w3.org/2000/svg">
<path d="M33.3392 32H3.71598C1.64154 31.9912 0 30.3505 0 28.2429V9.35707H36.999V28.2419C36.999 30.3123 35.4204 31.9529 33.3392 32ZM19.252 28.9356C19.4534 28.9356 19.653 28.6893 19.652 28.5127L19.6481 27.5658C19.6442 26.6219 20.3987 26.5394 21.2393 26.1558C21.6538 25.9664 22.109 25.9782 22.446 26.3167L23.1781 27.0546C23.2866 27.1635 23.6188 27.1713 23.7302 27.0595L24.809 25.9664C24.9272 25.8467 24.9136 25.5317 24.7964 25.412L24.072 24.6702C23.7612 24.3523 23.7234 23.9146 23.8871 23.5133L24.2812 22.5468C24.4565 22.118 24.7897 21.8364 25.271 21.8374L26.2123 21.8403C26.437 21.8403 26.6549 21.645 26.6539 21.4115L26.651 19.921C26.651 19.6963 26.4264 19.5158 26.2172 19.5158H25.2681C24.7819 19.5177 24.4488 19.2224 24.2735 18.7965L23.9055 17.8987C23.7292 17.4679 23.7418 17.0176 24.0817 16.6722L24.7625 15.9814C24.9098 15.8322 24.9466 15.533 24.7964 15.3779L23.7747 14.3319C23.6023 14.1553 23.3031 14.169 23.1346 14.3398L22.4537 15.0296C22.1332 15.3544 21.6867 15.3966 21.2877 15.218C20.4074 14.8235 19.6442 14.7342 19.6471 13.7707L19.65 12.8483C19.65 12.6118 19.4186 12.4136 19.191 12.4146L17.7335 12.4205C17.5698 12.4205 17.3548 12.6589 17.3538 12.8189L17.35 13.858C17.348 14.3525 17.0323 14.6695 16.6159 14.8431L15.7191 15.218C15.3143 15.3867 14.8746 15.3573 14.5521 15.0296L13.8732 14.3398C13.7018 14.1661 13.4064 14.1553 13.233 14.3319L12.25 15.3279C12.066 15.5143 12.0651 15.8018 12.2491 15.9873L12.9289 16.6761C13.264 17.0146 13.2776 17.463 13.1062 17.882L12.7323 18.7946C12.559 19.2185 12.2249 19.5168 11.7406 19.5158L10.7906 19.5138C10.5824 19.5138 10.3548 19.6944 10.3548 19.9191L10.3528 21.4096C10.3528 21.647 10.5688 21.8393 10.7954 21.8393H11.7387C12.2171 21.8374 12.5522 22.12 12.7265 22.5448L13.1207 23.5104C13.2979 23.9451 13.2282 24.3797 12.8979 24.7153L12.2152 25.4081C12.0602 25.5661 12.0912 25.8653 12.2413 26.0164L13.2263 27.0095C13.4093 27.1939 13.7018 27.192 13.8848 27.0045L14.5211 26.355C14.8668 26.0027 15.3172 25.9517 15.753 26.1489C16.6062 26.5365 17.3596 26.6179 17.3567 27.5648L17.3548 28.5058C17.3548 28.7482 17.5766 28.9395 17.8119 28.9386L19.253 28.9336L19.252 28.9356Z" fill="#00A5C5"/>
<path d="M36.9971 8.4651H0.00387384L0 3.74635C0 1.6524 1.64154 0.00196247 3.71501 0H33.2898C35.3701 0.00490616 36.9874 1.65338 37 3.74635L36.9971 8.4651ZM5.45727 4.23402C5.45727 3.64136 4.98272 3.16055 4.39778 3.16055C3.81283 3.16055 3.33828 3.64136 3.33828 4.23402C3.33828 4.82668 3.81283 5.30749 4.39778 5.30749C4.98272 5.30749 5.45727 4.82668 5.45727 4.23402ZM10.7557 4.23402C10.7557 3.64136 10.2821 3.16153 9.69719 3.16153C9.11224 3.16153 8.63866 3.64136 8.63866 4.23402C8.63866 4.82668 9.11224 5.30651 9.69719 5.30651C10.2821 5.30651 10.7557 4.82668 10.7557 4.23402ZM16.0551 4.23402C16.0551 3.64136 15.5806 3.16153 14.9966 3.16153C14.4126 3.16153 13.9381 3.64234 13.9381 4.23402C13.9381 4.8257 14.4126 5.30651 14.9966 5.30651C15.5806 5.30651 16.0551 4.8257 16.0551 4.23402Z" fill="#00A5C5"/>
<path d="M18.5024 23.2983C19.931 23.2983 21.0892 22.1249 21.0892 20.6775C21.0892 19.23 19.931 18.0566 18.5024 18.0566C17.0738 18.0566 15.9157 19.23 15.9157 20.6775C15.9157 22.1249 17.0738 23.2983 18.5024 23.2983Z" fill="#00A5C5"/>
</svg>
