<svg width="64" height="64" viewBox="0 0 64 64" fill="none" xmlns="http://www.w3.org/2000/svg">
<rect width="64" height="64" rx="8" fill="#00A5C5"/>
<path d="M49.9993 32.0661C49.9993 22.0886 41.9405 14 31.9996 14C22.0588 14 14 22.0886 14 32.0661C14 40.5384 19.8117 47.6478 27.6516 49.6004V37.5871H23.9401V32.0661H27.6516V29.6872C27.6516 23.5382 30.4243 20.6881 36.4391 20.6881C37.5795 20.6881 39.5472 20.9128 40.3522 21.1368V26.1412C39.9274 26.0964 39.1894 26.074 38.2729 26.074C35.3217 26.074 34.1812 27.1962 34.1812 30.1135V32.0661H40.0606L39.0505 37.5871H34.1812V50C43.0939 48.9196 49.9993 41.303 49.9993 32.0661Z" fill="white"/>
</svg>
