<svg width="120" height="45" viewBox="0 0 120 45" fill="none" xmlns="http://www.w3.org/2000/svg">
<g clip-path="url(#clip0_649_5644)">
<path d="M60 0C26.7084 0 0 10.0003 0 22.5004C0 35.0004 26.9163 45.0007 60 45.0007C93.0837 45.0007 120 34.9171 120 22.5004C120 10.0836 93.0837 0 60 0Z" fill="#464646"/>
<path d="M95.2503 16.0417C95.3336 15.9163 95.2503 15.7917 95.0836 15.7917H92.042C91.8333 15.7917 91.7087 15.8337 91.5833 16.0417C91.25 16.7083 86.9998 23.0416 86.2086 24.2915C86.0833 24.5001 85.9166 24.4581 85.8753 24.2494C85.792 23.4995 85.1667 22.6663 84.1668 22.291C83.4169 21.999 82.667 21.9157 81.8751 22.041C80.4999 22.2076 79.25 22.9576 78.1668 23.7908C76.5417 25.0407 75.0832 26.6658 73.25 27.8744C72.2502 28.541 70.875 29.0829 69.9584 28.2497C69.1252 27.4998 69.2085 25.7913 70.5004 24.4581C70.6257 24.3328 70.7924 24.4161 70.7503 24.5414C70.625 25.1247 70.7924 25.75 71.2503 26.1666C71.7922 26.6666 72.5835 26.7086 73.2921 26.3753C74.084 25.9587 74.5419 25.2087 74.7086 24.3335C74.9172 23.0003 73.8753 21.7917 72.5835 21.7084C71.5416 21.6251 70.5004 22.0004 69.5418 22.8336C69.0419 23.2503 68.7499 23.5423 68.3333 24.1668C68.2499 24.3335 68.0833 24.3335 68.0833 24.1248C68.1253 22.4163 67.4167 21.4164 66.0002 21.3751C64.875 21.3331 63.7084 21.9584 62.7919 22.667C61.792 23.4589 60.9168 24.5421 59.9589 25.5833C59.8335 25.7087 59.7502 25.7087 59.7089 25.458C59.6669 24.3328 59.3756 23.2082 58.8757 22.4163C58.709 22.1243 58.2924 21.9997 57.9591 22.2076C57.7925 22.291 57.2925 22.5409 56.8759 22.8329C56.6673 22.9996 56.626 23.2082 56.7093 23.4995C57.2092 25.208 57.1259 27.1665 56.4173 28.791C55.792 30.2908 54.5422 31.666 53.0836 32.1246C52.1251 32.4166 51.1252 32.2913 50.5006 31.416C49.6674 30.2495 50.0007 28.2077 51.2505 26.4992C52.3757 24.9994 53.9589 24.0828 55.5841 23.4575C55.7927 23.3742 55.7927 23.2488 55.7507 23.0822C55.6674 22.8322 55.542 22.4569 55.4587 22.2903C55.2921 21.9149 54.9168 21.8316 54.3755 21.8736C53.209 21.999 52.1671 22.4156 51.1252 22.9568C48.4168 24.4154 47.0416 27.2484 46.4584 28.7482C46.1664 29.4568 45.9164 29.9148 45.6251 30.3314C45.2085 30.8733 44.6665 31.3733 43.6667 32.2478C43.5833 32.3312 43.5 32.4978 43.5833 32.6645C43.6667 32.8731 44.2086 33.581 44.3333 33.6644C44.4999 33.7477 44.6665 33.6223 44.7499 33.581C45.4585 33.1224 46.2497 32.3725 46.6663 31.8725C46.7917 31.7059 46.9583 31.7892 47.0416 32.0392C47.4169 33.3724 48.4168 34.4976 49.75 34.9555C52.2497 35.7888 54.8334 34.5802 56.7919 32.4558C58.0417 31.1226 58.5004 30.2473 58.9583 29.6641C59.7502 28.6642 61.3747 26.4137 63.2498 24.9972C63.9584 24.4553 64.7496 24.0807 65.1662 24.3306C65.4995 24.5393 65.6249 25.0392 65.0829 25.9971C63.1665 29.5387 60.2915 33.6636 59.7915 34.6635C59.7082 34.8302 59.7915 34.9555 59.9582 34.9555H62.8745C63.0411 34.9555 63.0832 34.8722 63.1665 34.7889C64.6663 32.4558 66.0415 30.2474 67.5413 27.9556C67.6246 27.8302 67.708 27.9136 67.708 27.9976C67.75 28.5396 67.8746 29.2475 68.1666 29.7474C68.7499 30.6227 69.5418 30.9973 70.4163 30.9973C71.1249 30.9973 71.4995 30.9139 72.2495 30.622C72.8747 30.372 73.3747 30.08 73.7493 29.83C73.9579 29.6634 73.9992 29.9554 73.9992 29.9554C73.6659 31.7885 74.0826 33.9969 75.9157 34.8722C78.1241 35.9554 80.4992 34.4136 81.9157 33.0804C82.041 32.955 82.2077 32.955 82.2077 33.247C82.2497 33.789 82.4576 34.3722 82.9163 34.8302C84.0828 35.9967 86.4166 35.5388 88.7909 33.7049C90.2908 32.5384 91.8746 30.8719 93.2911 29.1634C93.3331 29.0801 93.3744 28.9968 93.2911 28.8714C93.0824 28.6628 92.7492 28.3715 92.5412 28.1628C92.4579 28.0795 92.2912 28.1208 92.2079 28.1628C90.7494 29.538 89.4162 31.1212 87.5411 32.4544C86.9158 32.913 85.8746 33.2463 85.416 32.663C85.2493 32.4131 85.2493 32.0798 85.416 31.6631C85.9992 30.2046 94.7909 16.83 95.2496 16.0381L95.2503 16.0417ZM83.6256 27.2498C83.6256 27.3331 83.7922 27.4585 83.9176 27.4998C83.9596 27.4998 84.0009 27.5418 83.9176 27.6664C83.5423 28.4584 83.209 28.9163 82.7511 29.6249C82.3344 30.2502 81.8345 30.7501 81.2512 31.2501C80.376 32 79.1261 32.7919 78.1263 32.25C77.6676 32 77.4597 31.3747 77.501 30.8748C77.543 29.4162 78.1676 27.9584 79.3341 26.4999C80.7926 24.7081 82.3757 23.7915 83.4176 24.2915C84.5008 24.7914 84.1675 26.0413 83.6676 27.0412C83.6256 27.1245 83.6256 27.2078 83.6256 27.2498Z" fill="white"/>
<path d="M31.4998 34.8751C28.2082 34.9171 25.3332 32.8753 24.9999 29.375C24.8332 27.4165 25.3752 25.708 26.4584 24.2915C27.417 23.0416 29.0834 21.9584 30.4999 21.7084C30.9586 21.6251 31.5831 21.6664 31.8331 21.9584C32.2497 22.417 32.1251 22.917 31.7078 23.1249C30.6246 23.6669 29.3747 24.5835 28.7081 25.8746C28.2082 26.9165 28.0829 28.1664 28.8748 29.375C30.208 31.3747 33.8749 31.4168 37.2499 28.2497C38.0831 27.4578 38.833 26.7499 39.6249 25.8333C41.1248 24.1248 41.6247 23.5003 43.6252 20.7085C43.6672 20.6665 43.6672 20.6252 43.6252 20.6252C43.6252 20.5832 43.5832 20.5832 43.5418 20.5832C42.2087 20.6252 41.0421 20.9998 39.9169 21.8751C39.5836 22.125 39.125 22.0837 38.917 21.7497C38.7084 21.4164 38.8337 20.9165 39.209 20.6665C41.0421 19.4167 43.0006 19.1667 45.0424 18.8334C45.0424 18.8334 45.1677 18.8334 45.2923 18.6667C46.1256 17.5835 46.7509 16.6249 47.6254 15.5417C48.5007 14.4585 49.6672 13.4586 50.5417 12.6667C51.7916 11.6248 52.5415 11.2502 53.3747 10.8336C53.5834 10.7082 53.3327 10.5836 53.2914 10.5836C48.7912 9.75035 44.1664 8.66714 39.7083 10.2916C36.6246 11.4581 35.2914 13.8752 35.9167 15.4997C36.3753 16.6663 37.9164 16.8329 39.3337 16.1663C40.5002 15.583 41.6254 14.6665 42.3753 13.4579C42.7919 12.7913 43.7085 13.2913 43.2506 14.4165C41.9587 17.4582 39.459 19.9166 36.4173 19.9999C33.8343 20.0833 32.1671 18.1668 32.1671 15.833C32.1671 11.2082 37.3339 8.16648 42.7086 7.70784C49.2086 7.16588 55.3752 8.9164 61.8338 9.66631C66.7919 10.2496 71.5421 10.2916 76.5002 9.12435C77.0834 8.99901 77.5001 9.37432 77.4588 9.95759C77.4167 10.8329 76.7502 11.6241 75.1257 12.5406C73.2506 13.5825 71.3341 13.8738 69.2924 13.8738C64.3756 13.9158 59.7921 11.9987 55.0426 10.9575C55.0426 11.1661 55.0846 11.4161 54.9173 11.5407C52.2922 13.4992 49.9172 15.4577 48.334 18.2074C48.292 18.2907 48.292 18.3327 48.4173 18.3327C49.7925 18.2494 51.0424 18.2074 52.3342 18.1241C52.5429 18.1241 52.5842 18.0407 52.5429 17.8741C52.4176 16.9155 52.7096 15.8323 53.5428 15.0824C54.418 14.3325 55.4592 14.2071 56.1678 14.7904C56.9598 15.4157 56.9177 16.5402 56.4598 17.4155C56.0012 18.2907 55.2513 18.7486 54.5434 18.9573C54.5434 18.9573 54.3767 18.9993 54.418 19.124C54.4601 19.3326 55.4179 19.8739 55.5013 20.0405C55.5846 20.1659 55.5433 20.3738 55.3759 20.5405C55.2926 20.6658 55.1259 20.7491 54.9173 20.7491C54.7506 20.7491 54.6673 20.7071 54.4173 20.5825C54.0007 20.3325 53.4175 19.9572 53.0842 19.4993C52.9588 19.3326 52.9175 19.3326 52.5842 19.3739C51.209 19.4573 49.0006 19.6659 47.5428 19.8326C47.1675 19.8746 47.1262 19.9579 47.0429 20.0825C44.7098 23.9575 42.1681 28.1244 39.4177 30.9161C36.5847 34.0831 34.1263 34.8743 31.5012 34.8743L31.4998 34.8751ZM53.9167 17.6669C53.9587 17.8755 54.042 17.9168 54.1253 17.8755C54.584 17.7922 55.0839 17.4169 55.3339 17.0003C55.5839 16.6249 55.7092 16.0417 55.4592 15.8337C55.2093 15.6251 54.834 15.7084 54.5427 15.9591C54.0007 16.4177 53.8341 17.1256 53.9174 17.6676" fill="white"/>
<path d="M59.9998 43.0423C28.25 43.0423 2.49951 33.8339 2.49951 22.5004C2.49951 11.1669 28.25 1.9585 59.9998 1.9585C91.7496 1.9585 117.5 11.1669 117.5 22.5004C117.5 33.8339 91.7503 43.0423 59.9998 43.0423ZM59.9998 3.667C29.3745 3.667 4.54129 12.1255 4.54129 22.5004C4.54129 32.8753 29.3745 41.3338 59.9998 41.3338C90.6251 41.3338 115.458 32.8753 115.458 22.5004C115.458 12.1255 90.6251 3.667 59.9998 3.667Z" fill="white"/>
</g>
<defs>
<clipPath id="clip0_649_5644">
<rect width="120" height="45" fill="white"/>
</clipPath>
</defs>
</svg>
