<svg width="39" height="32" viewBox="0 0 39 32" fill="none" xmlns="http://www.w3.org/2000/svg">
<path d="M21.8537 27.4235C27.7814 26.3678 32.1053 21.2342 32.2408 15.311C32.3605 10.0554 29.1898 5.33076 24.4762 3.35079C19.3824 1.21224 13.6216 2.583 10.0381 6.53565C6.34959 10.6041 5.73728 16.4773 8.40077 21.2321C8.7505 21.857 8.37136 22.6039 7.7622 22.8491C5.90743 23.595 3.84785 23.3342 2.23989 22.1314C0.733806 21.0037 -0.142118 19.1353 0.0395786 17.1689L0.000718629 14.7518C-0.048644 11.6024 2.45099 9.0028 5.65746 9.01636C8.06363 3.55004 13.4956 0.0156995 19.4622 5.16565e-05C25.4634 -0.0155962 30.9217 3.525 33.3425 9.01636C36.5511 9.00176 39.0486 11.5993 38.9993 14.7518L38.9615 17.1689C39.1274 18.9559 38.4206 20.6469 37.1603 21.8028C35.8044 23.0452 33.9832 23.4802 32.1683 23.1568C29.8598 26.6953 26.1324 29.0884 21.9807 29.7999C21.3915 31.2364 20.0125 32.1742 18.455 31.9729C16.8974 31.7715 15.7253 30.5259 15.6025 29.0206C15.4733 27.436 16.5036 26.0454 17.953 25.6302C19.5347 25.1775 21.1248 25.9401 21.8547 27.4235H21.8537Z" fill="#00A5C5"/>
<path d="M13.0303 26.7506C12.5861 27.0062 12.0872 27.0229 11.666 26.7141C11.3342 26.4711 11.0884 25.9901 11.2197 25.5051L12.251 21.6828C8.88914 18.0598 8.72214 12.5611 11.854 8.77121C14.9712 5.00007 20.4263 4.04764 24.6463 6.61285C28.8316 9.1572 30.5341 14.3627 28.5817 18.8766C26.6565 23.3269 21.7182 25.744 16.9552 24.4932L13.0293 26.7506H13.0303ZM16.7472 14.9991C16.7472 14.3544 16.2211 13.8317 15.572 13.8317C14.9229 13.8317 14.3967 14.3544 14.3967 14.9991C14.3967 15.6438 14.9229 16.1664 15.572 16.1664C16.2211 16.1664 16.7472 15.6438 16.7472 14.9991ZM20.6763 14.998C20.6763 14.3533 20.1501 13.8297 19.5 13.8297C18.8499 13.8297 18.3237 14.3523 18.3237 14.998C18.3237 15.6438 18.8499 16.1664 19.5 16.1664C20.1501 16.1664 20.6763 15.6438 20.6763 14.998ZM24.6064 14.9991C24.6064 14.3544 24.0802 13.8317 23.4312 13.8317C22.7821 13.8317 22.2559 14.3544 22.2559 14.9991C22.2559 15.6438 22.7821 16.1664 23.4312 16.1664C24.0802 16.1664 24.6064 15.6438 24.6064 14.9991Z" fill="#00A5C5"/>
</svg>
