<svg width="57" height="48" viewBox="0 0 57 48" fill="none" xmlns="http://www.w3.org/2000/svg">
<path d="M17.3152 41.5643L4.31873 34.0464C3.44369 33.5409 2.31037 33.7752 1.79826 34.6522L0.283084 37.2497C-0.253518 38.1691 -0.0230683 39.3206 0.938807 39.8762L14.0299 47.4489C14.9316 47.9699 16.0316 47.633 16.5548 46.7281L18.0388 44.1618C18.5776 43.2313 18.2526 42.1066 17.3152 41.5643Z" fill="url(#paint0_linear_889_10654)"/>
<path d="M35.9993 25.1927L39.9971 23.1866V3.97205L35.0163 3.96313C34.4229 3.96313 33.9976 4.42059 33.9676 5.01864V22.6633C34.9751 23.2234 35.6119 24.0055 35.9993 25.1927Z" fill="url(#paint1_linear_889_10654)"/>
<path d="M55.7178 20.5345C54.8772 19.4265 53.5703 18.9367 52.1664 19.036C51.0309 19.19 49.9855 19.4868 48.9379 20.0123L36.0828 26.4614C35.8112 28.6003 34.1079 29.9872 31.9782 29.9827L24.3923 29.9671C24.0149 29.9158 23.7866 29.6569 23.8134 29.2887C23.8289 29.0779 24.1206 28.8023 24.4079 28.8023L32.2186 28.7956C33.7294 28.7945 34.8916 27.5917 34.9117 26.1256C34.9295 24.8447 33.8796 23.441 32.419 23.4377L21.7159 23.4065C17.7838 22.1267 13.972 21.706 10.729 24.8357C9.92851 25.6703 9.28837 26.4982 8.72951 27.4701L5.36963 33.3099L17.4521 40.2968C17.9208 39.5325 18.2202 38.891 18.6856 38.2316C19.8779 36.5423 21.8874 35.4109 23.9726 35.3931L28.7218 35.3518C31.5551 35.3272 34.2682 34.6913 36.743 33.2597L55.3626 22.4927C56.113 22.0586 56.211 21.1828 55.72 20.5356L55.7178 20.5345Z" fill="url(#paint2_linear_889_10654)"/>
<path d="M48.3612 18.9668L48.3545 1.04212C48.3189 0.419526 47.8802 0 47.278 0H42.2537C41.6503 0 41.1994 0.403905 41.1627 1.04435L41.166 22.5897L48.3601 18.9668H48.3612Z" fill="url(#paint3_linear_889_10654)"/>
<path d="M32.7997 22.2393V7.92299L27.7755 7.92968C27.2144 7.92968 26.8403 8.39495 26.7691 8.92159L26.7735 22.2382H32.7997V22.2393Z" fill="url(#paint4_linear_889_10654)"/>
<path d="M25.6024 22.2282V11.8985L20.6528 11.8962C20.0382 11.8962 19.5918 12.3448 19.5773 12.9674L19.5818 21.6011C22.5142 22.477 22.5498 22.2215 25.6024 22.2282Z" fill="url(#paint5_linear_889_10654)"/>
<defs>
<linearGradient id="paint0_linear_889_10654" x1="58.707" y1="-2.48414" x2="3.58119" y2="50.8201" gradientUnits="userSpaceOnUse">
<stop stop-color="#01A3C2"/>
<stop offset="1" stop-color="#B2F1FE"/>
</linearGradient>
<linearGradient id="paint1_linear_889_10654" x1="58.707" y1="-2.48414" x2="3.58119" y2="50.8201" gradientUnits="userSpaceOnUse">
<stop stop-color="#01A3C2"/>
<stop offset="1" stop-color="#B2F1FE"/>
</linearGradient>
<linearGradient id="paint2_linear_889_10654" x1="58.707" y1="-2.48414" x2="3.58119" y2="50.8201" gradientUnits="userSpaceOnUse">
<stop stop-color="#01A3C2"/>
<stop offset="1" stop-color="#B2F1FE"/>
</linearGradient>
<linearGradient id="paint3_linear_889_10654" x1="58.707" y1="-2.48414" x2="3.58119" y2="50.8201" gradientUnits="userSpaceOnUse">
<stop stop-color="#01A3C2"/>
<stop offset="1" stop-color="#B2F1FE"/>
</linearGradient>
<linearGradient id="paint4_linear_889_10654" x1="58.707" y1="-2.48414" x2="3.58119" y2="50.8201" gradientUnits="userSpaceOnUse">
<stop stop-color="#01A3C2"/>
<stop offset="1" stop-color="#B2F1FE"/>
</linearGradient>
<linearGradient id="paint5_linear_889_10654" x1="58.707" y1="-2.48414" x2="3.58119" y2="50.8201" gradientUnits="userSpaceOnUse">
<stop stop-color="#01A3C2"/>
<stop offset="1" stop-color="#B2F1FE"/>
</linearGradient>
</defs>
</svg>
