<svg width="83" height="24" viewBox="0 0 83 24" fill="none" xmlns="http://www.w3.org/2000/svg">
<path d="M68.1241 8.16461C70.1478 5.82026 72.2835 3.53038 74.4173 1.28907C76.9395 1.27004 79.4624 1.25823 81.9839 1.3383L83 1.3698C80.1871 3.96946 77.2282 6.47329 74.487 9.14908C73.6007 10.0043 72.7247 10.8719 71.856 11.7461C68.5699 8.63256 65.1275 5.372 61.9059 2.17181L62.2566 2.31817C61.2809 2.33196 59.3042 2.34508 58.3279 2.34771C57.0186 2.34771 55.7086 2.34114 54.3993 2.32342L54.761 1.46956C57.1678 4.06003 59.6131 6.74566 61.9509 9.40701C62.7343 10.3035 63.5183 11.2007 64.2848 12.1137L64.2144 12.1819C63.3391 11.374 62.4808 10.549 61.6231 9.72467C60.4369 8.56824 58.966 7.14208 57.8046 5.97187C56.2724 4.44397 54.7323 2.88326 53.2249 1.32976L54.3999 1.3127C56.9313 1.27463 59.7148 1.28645 62.2572 1.31795L62.4684 1.31992L62.6079 1.46365C65.7453 4.65924 68.9421 8.0701 71.9915 11.332L71.7191 11.3287C72.5814 10.5378 73.4371 9.74042 74.283 8.9325C76.3927 6.93665 78.4444 4.79379 80.4673 2.70343C80.8779 2.28667 81.2859 1.86597 81.6985 1.45184L81.9767 2.16066C79.5125 2.19807 77.0483 2.14622 74.5848 2.08715L74.8696 1.96901C73.5185 3.29411 72.1193 4.6284 70.7356 5.9233C69.9197 6.67609 69.0248 7.50633 68.1939 8.23418L68.1248 8.16461H68.1241Z" fill="#03A2BE"/>
<path d="M68.1939 15.993C70.4697 18.0085 72.6948 20.1349 74.8696 22.2581L74.5848 22.14C75.8166 22.1078 77.0483 22.0849 78.2808 22.0684C79.5125 22.0501 80.745 22.0481 81.9774 22.0665L81.6991 22.7753C80.9913 22.0665 79.9557 20.9947 79.246 20.2616C76.8183 17.7236 74.3124 15.2638 71.7191 12.8978L71.9915 12.8945C69.6635 15.359 67.3479 17.8923 64.9769 20.3187L62.6079 22.7628L62.4684 22.9066C61.3852 22.9203 59.4124 22.9361 58.3286 22.9387C56.6445 22.9407 54.9115 22.9243 53.2249 22.8974L54.0389 22.0606C56.5102 19.5324 59.0787 16.9663 61.6237 14.5051C62.4821 13.6801 63.3398 12.8558 64.215 12.0479L64.2854 12.1161C63.519 13.0297 62.7356 13.9262 61.9516 14.8227C60.4272 16.5626 58.7359 18.4351 57.1815 20.1369C56.3747 21.0118 55.5744 21.8919 54.7616 22.7602L54.3999 21.9063C56.9313 21.8702 59.7148 21.8788 62.2572 21.9116L61.9066 22.0579L64.3363 19.6749C66.7953 17.2426 69.3618 14.8733 71.8566 12.483C74.766 15.4423 77.8506 18.2579 80.962 21.0026C81.6209 21.5893 82.3463 22.2601 83 22.8586C82.0712 22.8875 81.0565 22.921 80.1363 22.9335C78.2299 22.9623 76.3236 22.9545 74.4179 22.9387C73.8548 22.348 73.2924 21.7554 72.7345 21.1595C71.7243 20.0824 70.6281 18.8893 69.6381 17.7853C69.1278 17.217 68.6227 16.644 68.1248 16.0638L68.1939 15.9943V15.993Z" fill="#03A2BE"/>
<mask id="mask0_997_19371" style="mask-type:luminance" maskUnits="userSpaceOnUse" x="12" y="0" width="11" height="23">
<path d="M22.8631 3.04348L12.3357 22.1845V0H22.8631V3.04348Z" fill="white"/>
</mask>
<g mask="url(#mask0_997_19371)">
<path d="M13.0178 17.6493V6.21747C13.0178 2.73779 14.8382 0.750031 18.1697 0.750031C21.5012 0.750031 23.3216 2.73779 23.3216 6.21747V17.6493C23.3216 21.129 21.5012 23.1167 18.1697 23.1167C14.8382 23.1167 13.0178 21.129 13.0178 17.6493ZM19.9276 17.8669V5.99993C19.9276 4.44616 19.2488 3.85646 18.1697 3.85646C17.0906 3.85646 16.4118 4.44616 16.4118 5.99993V17.8669C16.4118 19.4206 17.0906 20.0103 18.1697 20.0103C19.2488 20.0103 19.9276 19.4195 19.9276 17.8669Z" fill="#03A2BE"/>
</g>
<mask id="mask1_997_19371" style="mask-type:luminance" maskUnits="userSpaceOnUse" x="12" y="3" width="13" height="21">
<path d="M23.0904 3.48521L12.4358 23.1166L15.3089 24H23.7407L24.5687 5.44758L23.0904 3.48521Z" fill="white"/>
</mask>
<g mask="url(#mask1_997_19371)">
<path d="M13.0181 17.6493V6.2175C13.0181 2.73782 14.8384 0.750061 18.1699 0.750061C21.5014 0.750061 23.3218 2.73782 23.3218 6.2175V17.6493C23.3218 21.129 21.5014 23.1168 18.1699 23.1168C14.8384 23.1168 13.0181 21.129 13.0181 17.6493ZM19.9278 17.8669V5.99996C19.9278 4.44619 19.249 3.85649 18.1699 3.85649C17.0909 3.85649 16.4121 4.44619 16.4121 5.99996V17.8669C16.4121 19.4206 17.0909 20.0104 18.1699 20.0104C19.249 20.0104 19.9278 19.4195 19.9278 17.8669Z" fill="#181818"/>
</g>
<path d="M0 1.06035H4.99725C8.39016 1.06035 10.057 2.95535 10.057 6.43503V8.5785C10.057 12.0582 8.39126 13.9532 4.99725 13.9532H3.39291V22.8064H0V1.06035ZM4.99725 10.8456C6.07741 10.8456 6.663 10.3487 6.663 8.79494V6.21638C6.663 4.66261 6.07741 4.16567 4.99725 4.16567H3.39291V10.8445H4.99725V10.8456Z" fill="#181818"/>
<path d="M26.4065 17.649V16.4067H29.6152V17.8975C29.6152 19.4513 30.294 20.0101 31.373 20.0101C32.4521 20.0101 33.1627 19.4513 33.1627 17.8357C33.1627 16.0334 32.4225 14.9159 30.2008 12.9579C27.3627 10.4412 26.4065 8.64008 26.4065 6.15427C26.4065 2.73754 28.1644 0.748672 31.4652 0.748672C34.7659 0.748672 36.401 2.73643 36.401 6.21612V7.11723H33.1923V5.99857C33.1923 4.4448 32.5749 3.8551 31.4959 3.8551C30.4168 3.8551 29.7687 4.4448 29.7687 5.93673C29.7687 7.52141 30.5396 8.63898 32.7613 10.5969C35.5994 13.1136 36.5249 14.8839 36.5249 17.5861C36.5249 21.1276 34.7352 23.1154 31.4037 23.1154C28.0722 23.1154 26.4065 21.1276 26.4065 17.6479V17.649Z" fill="#181818"/>
<path d="M42.4477 4.16678H38.9001V1.06035H49.3892V4.16678H45.8417V22.8064H42.4488V4.16678H42.4477Z" fill="#181818"/>
</svg>
