<svg width="80" height="70" viewBox="0 0 80 70" fill="none" xmlns="http://www.w3.org/2000/svg">
<path d="M50.4837 24.9656L37.1125 49.9313H33.2928L19.9215 24.9656L33.2928 0H37.1125L23.7412 24.9656L35.2022 46.3652L46.6631 24.9656L39.9771 12.4819L41.8874 8.9158L50.4837 24.9665V24.9656ZM44.752 0H40.9322L27.561 24.9656L36.1573 41.0164L38.0676 37.4502L31.3816 24.9665L42.8416 3.56614L54.3026 24.9656L40.9313 49.9313H44.7511L58.1223 24.9656L44.752 0ZM80 59.9181V61.9376H76.1635V69.8476H73.5768V61.9376H69.7429V59.9181H80ZM65.2123 59.9181H62.6273V69.8476H70.8462V67.8263H65.2123V59.9181ZM15.4491 65.7821H20.8264V63.877H15.4491V61.9394H21.3344V59.9181H12.8615V69.8476H21.4976V67.8263H15.45V65.7821H15.4491ZM32.3261 59.9181V66.4409L26.3994 59.9181H24.1972V69.8476H26.5211V63.3257L32.4055 69.8476H34.6395V59.9181H32.327H32.3261ZM54.5725 70C57.4961 70 59.701 68.752 59.701 65.7636C59.701 64.0329 59.701 59.9172 59.701 59.9172H57.0913C57.0913 59.9172 57.0913 65.5593 57.0913 65.7636C57.0913 66.7721 56.72 67.9584 54.5716 67.9584C52.4232 67.9584 52.0519 66.7712 52.0519 65.7636V59.9172H49.4422V65.7636C49.4422 68.752 51.6479 70 54.5707 70H54.5725ZM44.8516 68.0033H39.7936L39.021 69.8476H36.362L40.6429 59.9181H44.0005L48.2824 69.8476H45.6224L44.8507 68.0033H44.8516ZM44.0058 65.982L42.3231 61.9632L40.6403 65.982H44.0058ZM10.3788 69.8467L8.27182 66.2322C9.42805 65.6658 10.0357 64.5931 10.0357 63.2931C10.0357 61.3519 8.68104 59.9181 6.16925 59.9181H0V69.8476H2.59205V66.6681H5.80676L7.5301 69.8476H10.3779L10.3788 69.8467ZM7.38457 63.2922C7.38457 64.077 6.83688 64.6565 5.82088 64.6565H2.59205V61.9271H5.82088C6.83688 61.9271 7.38457 62.5066 7.38457 63.2913V63.2922Z" fill="#464646"/>
</svg>
