<svg width="100" height="67" viewBox="0 0 100 67" fill="none" xmlns="http://www.w3.org/2000/svg">
<g clip-path="url(#clip0_649_5717)">
<path d="M49.9004 44.3606C42.5099 39.2482 35.1385 34.1472 27.6943 28.9963C28.2313 28.666 28.7183 28.3433 29.2246 28.0553C31.4145 26.8223 33.7233 25.9196 36.2239 25.5662C39.4148 25.1207 42.3795 25.6853 45.0641 27.5444C48.3663 29.8337 51.6876 32.0922 54.9936 34.3738C55.2467 34.5467 55.4231 34.5928 55.6762 34.3892C55.96 34.1626 56.2822 33.9782 56.635 33.7439C46.9971 26.9836 37.3937 20.2463 27.7557 13.486C28.6071 13.1442 29.4317 12.8484 30.2218 12.4873C36.8145 9.46826 42.9778 5.75393 48.5772 1.12542C48.9416 0.82582 49.2982 0.510851 49.6281 0.172836C49.8428 -0.0499468 49.9924 -0.06147 50.2494 0.119061C53.1795 2.15868 56.1173 4.18677 59.0551 6.2187C63.2662 9.13024 67.4773 12.0456 71.6845 14.961C71.8111 15.0493 71.9376 15.1415 72.0987 15.2529C71.9798 15.349 71.8955 15.4258 71.8034 15.4872C69.1341 17.2119 66.2615 18.418 63.0821 18.7714C60.1366 19.0978 57.3906 18.514 54.9169 16.8201C51.561 14.5193 48.2052 12.2146 44.857 9.9023C44.5962 9.72177 44.4006 9.67183 44.136 9.88693C43.8637 10.1097 43.553 10.2826 43.1964 10.5169C52.8343 17.281 62.4339 24.0144 72.0911 30.7901C67.9375 32.3073 64.1406 34.3969 60.4319 36.6516C56.7156 38.914 53.1181 41.3454 49.8965 44.353L49.9004 44.3606Z" fill="#464646"/>
<path d="M17.5923 56.3333C17.4465 56.341 17.3161 56.3525 17.1896 56.3525C15.364 56.3525 13.5384 56.3525 11.7128 56.3602C11.4674 56.3602 11.314 56.2949 11.1644 56.0875C10.1557 54.6932 8.66765 54.4397 7.16808 54.8852C6.97248 54.9429 6.78072 55.0581 6.62347 55.1925C6.14023 55.6112 6.20927 56.2872 6.8114 56.4755C7.60529 56.7251 8.43371 56.8903 9.25828 57.0055C11.2027 57.2782 13.1702 57.4396 15.0111 58.2078C15.5059 58.4152 15.9891 58.6649 16.4302 58.9645C18.5702 60.4433 18.7313 63.2473 16.7907 64.9796C15.7705 65.8899 14.5279 66.3317 13.2162 66.6082C11.2449 67.0231 9.25445 66.9808 7.25629 66.8694C5.94464 66.7964 4.63682 66.6466 3.3942 66.2049C2.80741 65.9975 2.22445 65.7248 1.70286 65.3906C0.540785 64.6378 0.0805561 63.4778 1.6055e-05 62.1372C-0.0153249 61.8683 0.14959 61.876 0.326011 61.876C1.12758 61.876 1.92914 61.876 2.72687 61.876C4.01168 61.876 5.30032 61.8799 6.58512 61.8722C6.81907 61.8722 6.96481 61.9336 7.09521 62.1411C8.06169 63.6852 9.43087 63.8503 11.0532 63.3817C11.4559 63.2626 11.778 63.0091 11.801 62.5213C11.8241 62.022 11.5479 61.684 11.126 61.5687C10.451 61.3805 9.75303 61.2307 9.05501 61.1769C7.19492 61.0348 5.35401 60.789 3.56295 60.2589C3.24846 60.1667 2.94931 60.0323 2.64633 59.9094C-0.302968 58.7071 -0.187911 55.1157 1.44974 53.5101C2.41238 52.5652 3.5898 52.0428 4.88227 51.7893C7.99649 51.1748 11.0877 51.2247 14.129 52.208C14.9728 52.4807 15.7398 52.9071 16.388 53.5293C17.109 54.2169 17.5462 55.0466 17.6038 56.0568C17.6076 56.1451 17.5923 56.2335 17.5807 56.3449L17.5923 56.3333Z" fill="#464646"/>
<path d="M80.237 61.3267V66.5775H74.7142C74.7065 66.4161 74.6912 66.2587 74.6912 66.105C74.6912 61.5034 74.695 56.9056 74.6797 52.304C74.6797 51.8969 74.7909 51.797 75.1859 51.8047C76.7085 51.8277 78.2311 51.8162 79.7537 51.8162H80.2178V56.9556C80.4134 56.8058 80.5323 56.7213 80.6435 56.6252C82.4077 55.1118 84.1642 53.5869 85.9399 52.0889C86.1202 51.9353 86.4002 51.8316 86.6341 51.8316C88.8777 51.8123 91.1214 51.82 93.4187 51.8969C90.6573 54.2591 87.8959 56.6252 85.0885 59.0259C87.7924 61.5418 90.4732 64.0424 93.2307 66.6082C93.0198 66.6082 92.9086 66.6082 92.7935 66.6082C90.5767 66.6082 88.3561 66.6159 86.1394 66.5967C85.9438 66.5967 85.706 66.4968 85.5641 66.3624C83.9533 64.8528 82.3617 63.3279 80.7624 61.8068C80.6205 61.6724 80.4747 61.5457 80.237 61.3267Z" fill="#464646"/>
<path d="M46.4372 62.867H54.8478V66.5737H37.758C37.7504 66.4507 37.735 66.3125 37.735 66.1742C37.735 65.4252 37.7504 64.6762 37.7273 63.9271C37.7158 63.6045 37.8309 63.3971 38.061 63.182C40.6038 60.8236 43.135 58.4536 45.6663 56.0837C45.8197 55.9415 45.9654 55.7879 46.1802 55.5766H38.061V51.8162H38.4829C43.7985 51.8162 49.118 51.8201 54.4336 51.8085C54.8018 51.8085 54.9054 51.9161 54.8939 52.2733C54.8709 53.0338 54.8747 53.7982 54.8939 54.5587C54.9015 54.8468 54.8133 55.0427 54.5986 55.2386C51.9638 57.6508 49.3366 60.0707 46.7018 62.4867C46.5983 62.5789 46.4717 62.6442 46.3528 62.7249C46.3796 62.771 46.4065 62.8171 46.4333 62.8632L46.4372 62.867Z" fill="#464646"/>
<path d="M56.3204 51.8354H61.5478C61.5555 52.0005 61.5708 52.1542 61.5708 52.304C61.5708 55.0388 61.6015 57.7737 61.5593 60.5047C61.5325 62.3215 62.5834 63.0974 64.0292 63.2972C64.8001 63.4047 65.5748 63.3702 66.3189 63.0782C67.3697 62.6672 67.899 61.9144 67.9028 60.7851C67.9067 57.9734 67.9028 55.1579 67.9028 52.3462C67.9028 52.1888 67.9028 52.0351 67.9028 51.8469H73.2185C73.2185 51.9929 73.2185 52.1196 73.2185 52.2502C73.2185 55.3 73.2376 58.3499 73.207 61.3997C73.1993 62.1525 73.1149 62.9284 72.9193 63.6506C72.4936 65.2408 71.2702 66.0167 69.7821 66.4392C68.0601 66.9308 66.2882 66.9923 64.5163 66.9769C62.8096 66.9654 61.1029 66.8924 59.4615 66.3585C57.3789 65.6786 56.3357 64.3189 56.3127 62.118C56.2782 58.7916 56.2936 55.4652 56.2859 52.1427C56.2859 52.0543 56.3051 51.9621 56.3166 51.8315L56.3204 51.8354Z" fill="#464646"/>
<path d="M19.6172 51.8354H24.8408C24.8523 52.0121 24.8676 52.1773 24.8676 52.3425C24.8676 55.0619 24.8944 57.7853 24.8599 60.5048C24.8331 62.3715 25.9108 63.1013 27.326 63.3011C28.0547 63.4048 28.791 63.374 29.5044 63.1244C30.6435 62.7211 31.1996 61.9605 31.1996 60.7544C31.2034 57.9428 31.2072 55.1311 31.1919 52.3156C31.1919 51.9276 31.2724 51.797 31.6867 51.8047C33.144 51.8316 34.6014 51.8162 36.0588 51.8162H36.4922C36.4999 51.9814 36.5152 52.1197 36.5152 52.258C36.5152 55.3078 36.5267 58.3576 36.5075 61.4036C36.5037 62.0412 36.4539 62.6942 36.3235 63.3164C36.0243 64.7415 35.1192 65.671 33.7884 66.2011C32.6685 66.6466 31.4872 66.8195 30.2945 66.904C28.3653 67.0423 26.4362 67.05 24.5224 66.7504C23.8167 66.639 23.1072 66.47 22.4322 66.2357C20.576 65.5865 19.6593 64.1807 19.6248 62.2755C19.5635 58.8723 19.598 55.4691 19.5941 52.0659C19.5941 52.0006 19.6095 51.9391 19.6248 51.8316L19.6172 51.8354Z" fill="#464646"/>
<path d="M99.9731 66.5852H94.4695V51.8623C94.5462 51.847 94.6191 51.8239 94.6958 51.8239C96.3487 51.8239 98.0017 51.8239 99.6586 51.8162C99.9078 51.8162 100.004 51.8854 100.004 52.1504C99.9961 56.8941 99.9999 61.6379 99.9961 66.3816C99.9961 66.4315 99.9845 66.4853 99.9769 66.5852H99.9731Z" fill="#464646"/>
</g>
<defs>
<clipPath id="clip0_649_5717">
<rect width="100" height="67" fill="white"/>
</clipPath>
</defs>
</svg>
