<svg width="150" height="12" viewBox="0 0 150 12" fill="none" xmlns="http://www.w3.org/2000/svg">
<g clip-path="url(#clip0_649_5730)">
<path d="M2.54053 1.9941L7.70334 11.6605L13.6814 11.6654L18.7553 1.99288H21.2994V0.241783H13.6482V1.99288H15.8581L12.1635 9.03389L8.41904 1.9941H11.1041V0.241783H0.00236989L0 1.9941H2.54053ZM68.3169 1.98921V0.240562L78.5513 0.241783V1.98921H76.0025V9.88013H78.3664C80.5574 9.88013 81.9924 8.38913 81.9924 6.36695H83.6809V11.6508H68.3157V9.88379H70.8965L70.893 1.99043H68.3169M43.4389 10.1866C41.562 10.1512 40.7373 8.01425 40.7728 5.88949C40.8096 3.68902 41.8322 1.77063 43.5894 1.80238C45.3479 1.83413 46.2757 3.78915 46.2378 5.9884C46.2022 8.06309 45.3716 10.2233 43.4378 10.1866M43.4946 0.00122113C38.3543 0.00122113 35.6242 2.64374 35.6242 5.95909C35.6242 9.27445 38.2524 12 43.5243 12C48.7961 12 51.3947 9.31963 51.3947 5.95909C51.3947 2.59855 48.6361 0 43.4958 0M101.142 1.9941L106.305 11.6605L112.283 11.6654L117.357 1.99288H119.901V0.241783H112.25V1.99288H114.46L110.765 9.03389L107.021 1.9941H109.706V0.241783H98.6053L98.603 1.9941H101.143M142.044 10.1854C140.167 10.15 139.343 8.01303 139.378 5.88827C139.416 3.6878 140.437 1.76941 142.195 1.80116C143.953 1.83291 144.881 3.78793 144.843 5.98718C144.808 8.06187 143.977 10.222 142.043 10.1854M142.1 0C136.96 0 134.231 2.64252 134.231 5.95787C134.231 9.27323 136.859 11.9988 142.131 11.9988C147.403 11.9988 150.001 9.31841 150.001 5.95787C150.001 2.59733 147.24 0 142.1 0Z" fill="#464646"/>
</g>
<defs>
<clipPath id="clip0_649_5730">
<rect width="150" height="12" fill="white"/>
</clipPath>
</defs>
</svg>
