<svg width="200" height="18" viewBox="0 0 200 18" fill="none" xmlns="http://www.w3.org/2000/svg">
<g clip-path="url(#clip0_649_5636)">
<path d="M173.119 6.1147C173.119 3.7255 171.166 1.79187 168.752 1.79187H149.553L151.302 4.66701H168.752C169.56 4.66701 170.204 5.31493 170.204 6.10458C170.204 6.89423 169.55 7.54215 168.752 7.54215H149.553V16.1777H153.051V10.4173H165.97L169.335 16.1777H173.119L169.693 10.3161C171.657 9.89086 173.119 8.1597 173.119 6.10458V6.1147Z" fill="#464646"/>
<path d="M115.982 7.56241H99.4015V1.802H95.9033V7.56241V10.4375V16.198H99.4015V10.4375H115.982V16.198H119.48V10.4375V7.56241V1.802H115.982V7.56241Z" fill="#464646"/>
<path d="M72.5925 8.99998C72.5925 6.61078 74.5461 4.67714 76.9601 4.67714H90.9119L92.661 1.802H76.377C75.8758 1.802 75.3951 1.85262 74.9246 1.94373C73.1448 2.29806 71.6003 3.30031 70.557 4.67714C69.6466 5.88187 69.1045 7.38018 69.1045 8.99998C69.1045 9.49604 69.1556 9.97186 69.2477 10.4375C69.4625 11.5005 69.9228 12.4825 70.557 13.3127C71.6105 14.6996 73.155 15.6918 74.9246 16.0461C75.3951 16.1372 75.8861 16.1878 76.377 16.1878H90.9119L92.661 13.3127H76.9601C75.0575 13.3127 73.4414 12.108 72.8379 10.4375C72.6743 9.9921 72.5925 9.50616 72.5925 8.99998Z" fill="#464646"/>
<path d="M195.049 1.802L186.754 8.10909L178.448 1.802H173.324L184.688 10.4375V16.198H188.636V10.4375L200 1.802H195.049Z" fill="#464646"/>
<path d="M126.231 6.08434C126.252 5.30481 126.896 4.67714 127.684 4.67714H144.561L146.31 1.802H127.111C124.697 1.802 122.743 3.73564 122.743 6.12484V16.198H144.571L146.32 13.3228H126.241V10.4477H141.073L142.822 7.57253H126.241V6.09446L126.231 6.08434Z" fill="#464646"/>
<path d="M45.4866 2.29808C41.5998 1.14397 36.7105 0.354323 31.3098 0.0911055C30.0414 0.0303631 28.7526 -8.10158e-06 27.4331 -0.0101318H27.116C25.7966 -0.0101318 24.5077 0.0303631 23.2394 0.0911055C17.8285 0.354323 12.9392 1.14397 9.05232 2.29808C3.49818 3.94825 0 6.33745 0 8.99999C0 11.2475 2.50601 13.3127 6.65882 14.892C8.34655 15.5298 10.3002 16.0967 12.4584 16.5523C14.2178 16.9269 16.1203 17.2407 18.1353 17.4736C20.9891 17.8076 24.0679 17.9899 27.2797 17.9899C30.4915 17.9899 33.5601 17.8076 36.4138 17.4736C38.4289 17.2407 40.3314 16.9269 42.0907 16.5523C44.2592 16.0866 46.2129 15.5298 47.8903 14.892C52.0329 13.3127 54.5492 11.2576 54.5492 8.99999C54.5492 6.33745 51.051 3.94825 45.4866 2.29808ZM11.3231 11.541C10.1877 12.3509 8.69432 12.5129 7.41574 11.946C5.02225 10.8729 3.63116 9.58717 3.63116 8.21034C3.63116 6.47918 5.82008 4.89988 9.44101 3.69516C13.3688 2.38919 18.9741 1.50843 25.2851 1.35657C25.3669 1.35657 25.4488 1.35657 25.5408 1.35657C25.9193 1.35657 26.2978 1.34645 26.6864 1.33632C26.4307 1.37682 26.1852 1.43756 25.9398 1.52868C25.8579 1.55905 25.7761 1.58942 25.7045 1.62991C25.7045 1.62991 25.7045 1.62991 25.6943 1.62991C24.743 2.00449 23.4644 2.86501 23.0553 3.14847L22.9837 3.19909L22.9223 3.24971L12.8369 10.4781L11.3435 11.5512L11.3231 11.541ZM36.8128 14.5073C33.8976 14.8819 30.6654 15.0945 27.2695 15.0945C23.8736 15.0945 20.6413 14.8819 17.7262 14.5073C15.0565 14.0315 16.3453 12.2396 17.0409 11.4702C17.0409 11.4702 17.0511 11.4499 17.0613 11.4499C17.2352 11.2677 17.3579 11.1462 17.3886 11.126C17.8387 10.6704 18.3092 10.2148 18.7797 9.7694C20.3447 8.28121 21.9199 6.88413 23.4849 5.60854C23.9656 5.21372 24.4566 4.82901 24.9373 4.45444C24.9373 4.45444 24.9373 4.45444 24.9476 4.45444C24.968 4.43419 25.0192 4.39369 25.101 4.34307C25.4692 4.06973 26.4103 3.44206 27.2695 3.45219C28.1184 3.45219 29.0595 4.06973 29.4379 4.34307C29.4584 4.3532 29.4789 4.37345 29.4891 4.38357C29.5095 4.39369 29.5198 4.40382 29.53 4.41394C29.5505 4.42406 29.5607 4.44431 29.5709 4.45444C29.5709 4.45444 29.5811 4.46456 29.5914 4.46456C30.0721 4.83914 30.5631 5.22384 31.0438 5.61866C32.6088 6.89426 34.184 8.29133 35.749 9.77952C36.2195 10.2351 36.6798 10.6805 37.1401 11.1361C37.1401 11.1361 37.1401 11.1361 37.1503 11.1462C37.1912 11.1867 37.314 11.2981 37.4572 11.4499C38.1527 12.1991 39.4927 14.0315 36.8025 14.5174L36.8128 14.5073ZM47.1232 11.946C45.8446 12.5231 44.3512 12.3611 43.2159 11.541L41.7225 10.4679L31.6371 3.23959C31.6371 3.23959 31.6269 3.23959 31.6064 3.21934L31.5757 3.19909L31.5041 3.14847C31.0847 2.86501 29.8062 2.00449 28.8651 1.62991C28.8651 1.62991 28.8651 1.62991 28.8549 1.62991C28.7833 1.59954 28.7015 1.55905 28.6299 1.5388C28.6299 1.5388 28.6196 1.5388 28.6094 1.5388C28.3742 1.44769 28.1287 1.38694 27.873 1.34645C28.2616 1.34645 28.6401 1.34645 29.0186 1.3667C29.1004 1.3667 29.1822 1.3667 29.2743 1.3667C35.5853 1.51855 41.1906 2.38919 45.1184 3.70528C48.7393 4.91 50.9282 6.48931 50.9282 8.22046C50.9282 9.59729 49.5372 10.883 47.1437 11.9561L47.1232 11.946Z" fill="#464646"/>
</g>
<defs>
<clipPath id="clip0_649_5636">
<rect width="200" height="18" fill="white"/>
</clipPath>
</defs>
</svg>
