<svg width="30" height="29" viewBox="0 0 30 29" fill="none" xmlns="http://www.w3.org/2000/svg">
<path d="M0 13.6372V3.92008C0.324927 1.68799 2.11046 0 4.40535 0H18.5671C21.0025 0 22.9678 1.96396 22.9686 4.39363L22.9717 13.1613C22.956 15.5996 21.0112 17.5447 18.5695 17.5588H11.5428L3.51926 23.7306L3.51376 17.464C1.57676 17.0641 0.276266 15.5102 0 13.6356V13.6372ZM17.6975 4.38814H5.27418V6.14433H17.6975V4.38814ZM17.6975 7.90053H5.27418V9.65672H17.6975V7.90053ZM14.1814 11.4129H5.27418V13.1691H14.1814V11.4129Z" fill="#00A5C5"/>
<path d="M18.469 22.8306L11.4917 22.8267C10.4824 22.8368 9.57277 22.5091 8.77458 21.9062L12.1384 19.3166L18.5695 19.3127C21.9412 19.3111 24.7188 16.5953 24.7227 13.217L24.7305 5.26784H25.608C27.9013 5.2694 29.7488 6.98797 30 9.27494V18.8203C29.7787 20.7678 28.4232 22.3257 26.4902 22.7357L26.4854 29L18.469 22.8298V22.8306Z" fill="#00A5C5"/>
</svg>
