<svg width="30" height="30" viewBox="0 0 30 30" fill="none" xmlns="http://www.w3.org/2000/svg">
<path d="M23.3764 0C25.0698 0.215831 26.6038 0.920617 27.8418 2.15831C29.0901 3.40777 29.8069 4.96725 30 6.67977V7.9104C29.8022 9.57504 29.1309 11.1196 27.9141 12.3353L21.8596 18.3825C19.0569 21.1813 14.4948 21.1271 11.7306 18.3056C11.32 17.8865 10.9581 17.4674 10.6244 16.9376L11.9952 15.5775C12.6758 14.9025 13.7365 14.9944 14.4069 15.6458C15.7824 16.9824 17.9484 16.9659 19.3058 15.6089L25.16 9.75791C26.5425 8.37581 26.5159 6.16256 25.1545 4.81578C23.805 3.48076 21.6092 3.46978 20.2416 4.84089L16.5933 8.48412C15.0907 7.84133 13.5543 7.69143 11.8994 7.85938L17.4499 2.28545C18.7397 0.990468 20.3036 0.199349 22.0865 0H23.3764Z" fill="#00A5C5"/>
<path d="M9.70437 25.2051L13.3989 21.5148C14.8835 22.1544 16.383 22.2981 18.0764 22.1537L12.3705 27.8696C9.51517 30.7586 4.96725 30.6684 2.14492 27.8477C-0.717449 24.9869 -0.72059 20.4466 2.16926 17.5576L8.00076 11.7278C10.8985 8.831 15.5649 8.8153 18.3825 11.8197C18.7335 12.194 19.064 12.5833 19.3655 13.0636L18.0575 14.3704C17.3572 15.0697 16.2833 15.0367 15.5861 14.3563C14.2146 13.0173 12.0407 13.0362 10.6826 14.3924L4.85655 20.2104C3.48582 21.5792 3.44735 23.75 4.77726 25.1251C6.10717 26.5001 8.28653 26.5692 9.7028 25.2059L9.70437 25.2051Z" fill="#00A5C5"/>
</svg>
