<svg width="30" height="30" viewBox="0 0 30 30" fill="none" xmlns="http://www.w3.org/2000/svg">
<path d="M21.693 29.9992H3.2834C1.55946 29.6984 0.299986 28.4405 0 26.7158V7.0166C0.315651 5.2378 1.73491 3.74881 3.64292 3.74724L17.4031 3.73628L10.946 10.2147C10.3562 10.806 10.0257 11.5337 9.90973 12.3553L9.41942 16.274C9.26903 17.4763 9.64891 18.6411 10.4878 19.4839C11.2961 20.2961 12.4467 20.7316 13.6255 20.5867L17.5888 20.0995C18.4386 19.9914 19.1701 19.6491 19.7858 19.0554L25.0101 13.842L25.0179 26.1831C25.0195 28.1726 23.5932 29.7024 21.6922 30L21.693 29.9992Z" fill="#00A5C5"/>
<path d="M18.1268 17.1779C17.8519 17.4528 17.5817 17.586 17.2331 17.6283L12.9785 18.1413C12.3057 18.0168 11.8169 17.387 11.9007 16.686L12.3723 12.7657C12.4114 12.4399 12.5383 12.1579 12.7756 11.9206L23.7819 0.908653C24.3984 0.291438 25.549 -0.0578987 26.4043 0.00789572C27.3614 0.0815228 28.1635 0.501354 28.8339 1.16556C29.5028 1.82977 29.9234 2.63811 29.9924 3.59448C30.0581 4.51168 29.6963 5.59102 29.0227 6.26542L18.1276 17.1771L18.1268 17.1779Z" fill="#00A5C5"/>
</svg>
