<svg width="150" height="32" viewBox="0 0 150 32" fill="none" xmlns="http://www.w3.org/2000/svg">
<g clip-path="url(#clip0_649_5651)">
<path d="M15.9978 25.1393H19.0477V24.2899H11.8828V25.1393H14.9327V31.8475H15.9978V25.1393Z" fill="#231F20"/>
<path d="M24.4541 31.8474H25.5193V28.7603C25.5193 26.9904 24.4541 26.2174 23.0071 26.2174C22.0173 26.2174 21.1782 26.6039 20.7209 27.3719V24.2848H19.6558V31.8423H20.7209V29.2994C20.7209 27.6058 21.7861 26.9091 22.8563 26.9091C23.8462 26.9091 24.4591 27.4482 24.4591 28.8366V31.8423L24.4541 31.8474Z" fill="#231F20"/>
<path d="M27.8056 29.3808C27.8809 30.459 28.5693 31.3084 29.7852 31.3084C30.6996 31.3084 31.3076 30.9981 31.5387 30.2302H32.6793C32.4482 31.5423 31.1569 32.0051 29.8606 32.0051C27.8809 32.0051 26.7354 30.9269 26.7354 29.2283C26.7354 27.3007 27.9563 26.2225 29.8606 26.2225C31.7648 26.2225 32.7546 27.2244 32.7546 29.0757V29.3859H27.8056V29.3808ZM29.8606 26.9142C28.7954 26.9142 28.0317 27.4533 27.8809 28.6892H31.6895C31.6895 27.4533 30.775 26.9142 29.8606 26.9142Z" fill="#231F20"/>
<path d="M72.98 27.2193C73.1308 27.2193 73.3619 27.2193 73.7438 27.2956V26.37C73.593 26.2937 73.4373 26.2937 73.1358 26.2937C72.146 26.2937 71.4576 26.8328 71.0808 27.5296L71.0054 26.4514H70.0156C70.0156 26.8379 70.091 27.2244 70.091 27.6872V31.8525H71.0808V29.2282C71.0808 27.9161 71.6888 27.2244 72.9851 27.2244L72.98 27.2193Z" fill="#231F20"/>
<path d="M104.599 27.2193C104.83 27.2193 105.056 27.2193 105.438 27.2956V26.37C105.288 26.2937 105.132 26.2937 104.75 26.2937C103.76 26.2937 103.152 26.8328 102.695 27.5296V26.4514H101.705V31.8474H102.77V29.2231C102.77 27.911 103.378 27.2193 104.599 27.2193Z" fill="#231F20"/>
<path d="M54.0884 31.0744L52.4153 26.4514H51.1943L53.3297 31.8474H54.7768L56.5253 27.2956L58.4295 31.8474H59.8012L61.9366 26.4514H60.791L59.1179 31.0744L57.289 26.4514H55.9173L54.0884 31.0744Z" fill="#231F20"/>
<path d="M40.4519 28.918H38.1658V31.8474H37.1006V24.2899H40.3012C42.5873 24.2136 43.351 25.2155 43.351 26.5277C43.351 27.9161 42.4366 28.918 40.4569 28.918H40.4519ZM40.3012 25.063H38.1708V28.0738H40.3816C41.7532 28.0738 42.2105 27.5347 42.2105 26.5328C42.2105 25.6834 41.7532 25.068 40.3062 25.068L40.3012 25.063Z" fill="#231F20"/>
<path d="M47.2349 32C45.0995 32 43.959 30.9981 43.959 29.1468C43.959 27.2956 45.0995 26.2174 47.2349 26.2174C49.5211 26.2174 50.5862 27.2956 50.5862 29.1468C50.5862 30.9981 49.4457 32 47.2349 32ZM47.2349 26.9091C45.7879 26.9091 45.0242 27.8347 45.0242 29.1468C45.0242 30.3013 45.7879 31.3032 47.2349 31.3032C48.7573 31.3032 49.5211 30.3013 49.5211 29.1468C49.5211 27.8347 48.7573 26.9091 47.2349 26.9091Z" fill="#231F20"/>
<path d="M63.5342 29.3808C63.685 30.459 64.298 31.3084 65.5139 31.3084C66.4283 31.3084 67.1117 30.9981 67.3428 30.2302H68.408C68.1768 31.5423 66.8856 32.0051 65.5892 32.0051C63.6096 32.0051 62.5444 30.9269 62.5444 29.2283C62.5444 27.3007 63.685 26.2225 65.5892 26.2225C67.4935 26.2225 68.5587 27.2244 68.5587 29.0757V29.3859H63.5292L63.5342 29.3808ZM65.5892 26.9142C64.5241 26.9142 63.7603 27.4533 63.6096 28.6892H67.4181C67.4181 27.4533 66.5037 26.9142 65.5892 26.9142Z" fill="#231F20"/>
<path d="M107.036 29.3808C107.111 30.459 107.8 31.3084 109.016 31.3084C109.93 31.3084 110.538 30.9981 110.769 30.2302H111.91C111.684 31.5423 110.387 32.0051 109.016 32.0051C107.111 32.0051 105.971 30.9269 105.971 29.2283C105.971 27.3007 107.187 26.2225 109.096 26.2225C111.005 26.2225 111.99 27.2244 111.99 29.0757V29.3859H107.041L107.036 29.3808ZM109.091 26.9142C108.026 26.9142 107.187 27.4533 107.111 28.6892H110.92C110.92 27.4533 110.005 26.9142 109.091 26.9142Z" fill="#231F20"/>
<path d="M87.4555 24.829C87.6866 24.829 88.0634 24.9052 88.596 24.9815V24.2085C88.2142 24.1322 87.757 24.1322 87.2244 24.1322C85.702 24.1322 85.2447 24.9052 85.2447 26.2123V26.4463H83.873V27.143H85.2447V31.8474H86.2345V27.143H88.4453V26.4463H86.2345V25.9834C86.2345 25.1341 86.6164 24.8239 87.4555 24.8239V24.829Z" fill="#231F20"/>
<path d="M80.0647 32C77.8539 32 76.7134 30.9981 76.7134 29.1468C76.7134 27.2956 77.9343 26.2174 80.0647 26.2174C82.1951 26.2174 83.416 27.2956 83.416 29.1468C83.416 30.9981 82.1951 32 80.0647 32ZM80.0647 26.9091C78.6177 26.9091 77.8539 27.8347 77.8539 29.1468C77.8539 30.3013 78.6177 31.3032 80.0647 31.3032C81.5117 31.3032 82.2755 30.3013 82.2755 29.1468C82.2755 27.8347 81.5871 26.9091 80.0647 26.9091Z" fill="#231F20"/>
<path d="M125.621 27.5296C125.315 26.6802 124.481 26.2174 123.717 26.2174C122.953 26.2174 122.195 26.6039 121.738 27.3719L121.662 26.4463H120.672C120.672 26.8328 120.748 27.2193 120.748 27.6821V31.8474H121.738V29.2231C121.738 27.6059 122.652 26.9091 123.491 26.9091C124.33 26.9091 124.787 27.5245 124.787 29.0655V31.8423H125.853V29.2181C125.853 27.2905 126.993 26.904 127.526 26.904C128.591 26.904 128.897 27.6771 128.897 29.0604V31.8373H129.887V28.679C129.887 26.904 128.973 26.2123 127.676 26.2123C126.611 26.2123 125.848 26.9854 125.621 27.5245V27.5296Z" fill="#231F20"/>
<path d="M133.927 32C135.906 32 136.896 31.4609 136.896 30.3013C136.896 29.452 136.363 29.0655 135.374 28.9129L133.62 28.5315C132.856 28.3789 132.48 28.2212 132.48 27.7584C132.48 27.2193 133.088 26.9091 134.077 26.9091C134.841 26.9091 135.524 27.138 135.6 27.8347H136.665C136.665 26.5226 135.218 26.2123 134.072 26.2123C132.701 26.2123 131.485 26.6752 131.485 27.911C131.485 28.7603 132.093 29.1469 132.932 29.2994L134.61 29.6097C135.143 29.7622 135.75 29.9199 135.75 30.3827C135.75 30.9981 135.143 31.3083 133.997 31.3083C133.082 31.3083 132.399 30.9981 132.243 30.3064H131.178C131.254 31.5423 132.399 32.0051 133.922 32.0051L133.927 32Z" fill="#231F20"/>
<path d="M95.9872 31.8475H92.7866V24.2899H95.9872C98.8813 24.2899 100.178 25.6021 100.178 28.0687C100.178 30.5353 98.6552 31.8475 95.9872 31.8475ZM95.6857 25.063H93.9322V30.9981H95.8365C98.4291 30.9981 99.037 29.6097 99.037 28.0687C99.037 26.0649 98.3537 25.0579 95.6857 25.0579V25.063Z" fill="#231F20"/>
<path d="M117.929 31.8474H118.919V28.1449C118.919 26.8328 117.854 26.2174 116.326 26.2174C115.186 26.2174 113.814 26.5276 113.658 27.8398H114.804C114.879 27.3007 115.412 26.9142 116.326 26.9142C117.241 26.9142 117.849 27.3007 117.849 28.2263V28.4603H117.241C116.02 28.4603 113.276 28.384 113.276 30.2301C113.276 31.3083 114.191 32.0051 115.562 32.0051C116.628 32.0051 117.316 31.9288 117.849 31.0795L117.924 31.8525L117.929 31.8474ZM117.854 29.4571C117.854 30.7692 117.165 31.3083 115.874 31.3083C114.809 31.3083 114.427 30.8455 114.427 30.2301C114.427 29.0756 116.557 29.1519 117.321 29.1519H117.854V29.4571Z" fill="#231F20"/>
<path d="M117.854 17.8105V15.4965L120.215 15.2676C120.979 15.115 121.28 14.4183 121.436 14.2657L127.149 4.78065C127.606 4.08389 127.149 3.39222 126.541 3.31593L123.571 3.00569V0.615356H136.6C137.363 0.615356 137.821 1.15445 138.122 1.61726L145.739 13.4164C146.347 14.342 146.804 15.11 147.568 15.1913L150.005 15.4253V17.8156H135.303V15.5016L137.132 15.2727C138.047 15.1964 138.805 14.7336 138.047 13.6554L137.363 12.5772H126.928L126.089 13.8894C125.631 14.6624 126.089 15.2015 126.852 15.2778L128.757 15.5066V17.8207H117.864L117.854 17.8105ZM128.747 9.48503H135.374L132.022 4.24155L128.747 9.48503Z" fill="#464646"/>
<path d="M108.101 0.615356H91.3395V3.00569L93.3945 3.15827C94.2336 3.31084 94.535 3.84994 94.535 4.62299V13.8741C94.535 14.5709 94.2286 15.1862 93.5452 15.2625L91.3345 15.5728V17.8105H108.096C115.864 17.8105 119.22 14.0318 119.22 8.94085C119.22 4.47041 115.869 0.615356 108.096 0.615356H108.101ZM105.508 14.4946H101.167V3.93131H105.508C109.699 3.93131 111.372 4.85693 111.372 9.25108C111.372 13.6452 109.699 14.4946 105.508 14.4946Z" fill="#464646"/>
<path d="M0 17.8105H13.6364V15.4965L11.2749 15.2676C10.7423 15.1913 10.2097 14.8811 10.2097 13.7266V10.9497H20.7208V13.5689C20.7208 14.342 20.5701 15.11 19.6557 15.1862L17.2942 15.4202V17.8105H30.9305V15.4202L28.4937 15.1862C28.0364 15.11 27.5039 14.7234 27.5039 13.7978V4.85693C27.5039 3.93131 27.8103 3.31593 28.569 3.23456L30.9305 3.00569V0.615356H17.2942V2.92941L19.6557 3.23964C20.4947 3.31593 20.7208 4.01269 20.7208 4.86202V7.48122H10.2097V4.78065C10.2097 3.77874 10.6669 3.31593 11.3502 3.23964L13.6364 3.01078V0.615356H0.0753668V3.00569L2.36149 3.23456C3.20058 3.31084 3.50204 4.0076 3.42668 4.85693V13.5689C3.42668 14.5709 3.20058 15.1862 2.28613 15.2676L0 15.4965L0 17.8105Z" fill="#464646"/>
<path d="M31.5386 9.17483C31.5386 3.77877 35.8797 0 45.4814 0C55.0832 0 59.3439 3.77877 59.3439 9.17483C59.3439 14.5709 55.0028 18.4259 45.4814 18.4259C35.9601 18.4259 31.5386 14.6472 31.5386 9.17483ZM45.4814 3.23967C41.5975 3.23967 39.3868 4.70439 39.3868 9.17483C39.3868 13.6453 41.5975 15.1914 45.4814 15.1914C49.3653 15.1914 51.5007 13.7266 51.5007 9.17483C51.5007 4.62301 49.29 3.23967 45.4814 3.23967Z" fill="#464646"/>
<path d="M60.1074 17.8105H70.9251V15.4965L68.6389 15.2676C67.9556 15.1913 67.5738 14.6522 67.5738 13.8029V5.09088L76.5625 17.1189C76.864 17.5817 77.477 17.8105 78.0095 17.8105H86.5411V4.78065C86.5411 4.16526 86.6918 3.31593 87.5309 3.23964L89.8924 3.01078V0.615356H79.0747V2.92941L81.4362 3.23964C82.2753 3.31593 82.426 4.08897 82.426 4.86202V13.3452L73.5127 1.39349C73.1308 0.930677 72.6736 0.620442 72.0656 0.620442H60.1074V3.01078L62.3182 3.23964C63.1573 3.39222 63.4587 3.77874 63.4587 4.86202V13.574C63.4587 14.6522 63.1522 15.115 62.3182 15.2727L60.1074 15.5016V17.8156V17.8105Z" fill="#464646"/>
</g>
<defs>
<clipPath id="clip0_649_5651">
<rect width="150" height="32" fill="white"/>
</clipPath>
</defs>
</svg>
