<svg width="130" height="31" viewBox="0 0 130 31" fill="none" xmlns="http://www.w3.org/2000/svg">
<g clip-path="url(#clip0_649_5673)">
<path d="M116.754 31C116.618 31 116.481 31 116.345 31C116.338 30.6319 116.324 30.2638 116.324 29.8956C116.324 23.5766 116.324 17.2562 116.319 10.9372C116.319 10.6355 116.26 10.3352 116.218 9.91585C115.848 10.1221 115.606 10.2383 115.383 10.3836C113.608 11.5475 111.836 12.7169 110.062 13.8863C102.206 19.0608 94.3484 24.2354 86.4951 29.4126C85.7427 29.9095 84.9739 30.3302 84.0399 30.3302C77.417 30.326 70.7954 30.3357 64.1725 30.3233C62.8316 30.3205 62.0232 29.4694 61.9795 28.1131C61.9713 27.8599 61.9754 27.6052 61.9754 27.352C61.9754 19.5106 61.9754 11.6679 61.9726 3.82656C61.9726 3.51656 61.9289 3.20795 61.8948 2.76232C61.4988 2.96438 61.2148 3.08478 60.9539 3.24393C54.7352 7.02759 48.5193 10.8154 42.3033 14.6032C41.7398 14.9464 41.6865 15.3501 42.1435 15.8142C46.5993 20.3327 51.0565 24.8512 55.5095 29.3739C55.7307 29.5995 55.9096 29.8679 56.1882 30.2139C55.8509 30.2748 55.7007 30.326 55.5505 30.326C51.2039 30.326 46.8574 30.3246 42.5109 30.3163C41.697 30.3163 41.0347 29.9897 40.4544 29.3946C37.8612 26.7389 35.2352 24.1163 32.6503 21.4523C32.2024 20.9914 31.8938 20.9236 31.3298 21.271C26.8248 24.0513 22.294 26.7887 17.7781 29.5538C16.9164 30.0811 16.022 30.3482 15.0033 30.3413C10.9067 30.3136 6.81003 30.2997 2.71476 30.3468C1.39428 30.362 0.475264 29.9233 0.00415039 28.6473V9.96429C0.296377 8.14857 1.49123 7.0954 2.99333 6.28027C3.73346 5.87893 4.43944 5.41393 5.15909 4.97246C7.85194 3.31589 10.5489 1.65795 13.2459 0H13.519C13.5749 0.35567 13.6787 0.711339 13.6787 1.06701C13.6883 8.23853 13.6856 15.4114 13.6883 22.5829C13.6883 22.8916 13.732 23.2002 13.7648 23.632C14.1785 23.405 14.4789 23.2555 14.763 23.0812C26.7484 15.7809 38.7324 8.48348 50.7069 1.16804C51.6559 0.58817 52.6378 0.308616 53.7411 0.311384C60.0445 0.326607 66.3478 0.318304 72.6498 0.319688C74.6859 0.319688 75.4082 1.0504 75.4082 3.10277C75.4082 11.0133 75.4082 18.9225 75.4123 26.833C75.4123 27.1624 75.4601 27.4904 75.497 27.9747C75.9449 27.7049 76.2562 27.5319 76.5526 27.3367C89.7287 18.6623 102.908 9.99058 116.074 1.29951C117.109 0.615848 118.18 0.292009 119.409 0.308616C122.025 0.343214 124.643 0.345982 127.259 0.308616C128.591 0.289241 129.563 0.730714 130.001 2.07728V21.0371C129.702 22.8141 128.573 23.9018 127.067 24.6782C126.925 24.7516 126.794 24.8415 126.657 24.9259C123.357 26.9506 120.056 28.9767 116.756 31.0014L116.754 31Z" fill="#464646"/>
</g>
<defs>
<clipPath id="clip0_649_5673">
<rect width="130" height="31" fill="white"/>
</clipPath>
</defs>
</svg>
