<svg width="58" height="48" viewBox="0 0 58 48" fill="none" xmlns="http://www.w3.org/2000/svg">
<path d="M26.6487 0C26.6207 0.150958 26.5928 0.298561 26.5659 0.441692C26.538 0.584822 26.5111 0.724598 26.4832 0.859901C26.4552 0.995204 26.4273 1.12715 26.3993 1.25575C26.3714 1.38434 26.3434 1.50846 26.3143 1.63035C26.2853 1.75111 26.2562 1.86964 26.2271 1.9837C26.198 2.09776 26.1678 2.20958 26.1365 2.31692C26.1052 2.42427 26.075 2.52938 26.0426 2.63114C26.0102 2.7329 25.9778 2.8313 25.9442 2.92635C25.9107 3.02139 25.876 3.11421 25.8402 3.20366C25.8044 3.29312 25.7686 3.38034 25.7306 3.4642C25.6926 3.54807 25.6546 3.6297 25.6143 3.70797C25.5741 3.78625 25.5327 3.86229 25.4902 3.93609C25.4477 4.00989 25.403 4.08034 25.3572 4.14967C25.3113 4.21899 25.2643 4.28497 25.2151 4.34982C25.1659 4.41468 25.1156 4.47618 25.0631 4.53657C25.0105 4.59695 24.9568 4.6551 24.9009 4.71101C24.845 4.76692 24.7869 4.82171 24.7265 4.87315C24.6661 4.9257 24.6046 4.97602 24.5397 5.02522C24.4749 5.07442 24.4089 5.12139 24.3396 5.16723C24.2703 5.21308 24.1998 5.25669 24.126 5.3003C24.0522 5.34279 23.9762 5.38417 23.8979 5.42442C23.8196 5.46468 23.738 5.50381 23.6541 5.54071C23.5703 5.57873 23.483 5.61452 23.3936 5.6503C23.3041 5.68608 23.2113 5.72075 23.1163 5.75429C23.0212 5.78784 22.9228 5.82027 22.8211 5.85269C22.7193 5.88512 22.6153 5.91643 22.5069 5.94662C22.3995 5.97682 22.2877 6.00701 22.1736 6.0372C22.0596 6.06627 21.941 6.09535 21.8203 6.12442C21.6995 6.15349 21.5743 6.18145 21.4457 6.2094C21.3171 6.23736 21.1851 6.26531 21.0498 6.29327C20.9145 6.32122 20.7748 6.34918 20.6316 6.37602C20.4885 6.40397 20.3409 6.43081 20.1899 6.45876C20.3409 6.48672 20.4885 6.51467 20.6316 6.54151C20.7748 6.56947 20.9145 6.5963 21.0498 6.62426C21.1851 6.65221 21.3171 6.68017 21.4457 6.70812C21.5743 6.73608 21.6984 6.76403 21.8203 6.79311C21.9422 6.82218 22.0596 6.85125 22.1736 6.88033C22.2877 6.9094 22.3995 6.93959 22.5069 6.9709C22.6142 7.00109 22.7193 7.0324 22.8211 7.06483C22.9228 7.09726 23.0212 7.12969 23.1163 7.16323C23.2113 7.19678 23.3041 7.23144 23.3936 7.26723C23.483 7.30301 23.5703 7.33879 23.6541 7.37681C23.738 7.41483 23.8196 7.45285 23.8979 7.4931C23.9762 7.53336 24.0522 7.57473 24.126 7.61723C24.1998 7.65972 24.2703 7.70444 24.3396 7.75029C24.4089 7.79614 24.4749 7.8431 24.5397 7.8923C24.6046 7.9415 24.6661 7.99182 24.7265 8.04438C24.7869 8.09694 24.845 8.15061 24.9009 8.20652C24.9568 8.26243 25.0116 8.32058 25.0631 8.38096C25.1156 8.44134 25.1659 8.50284 25.2151 8.5677C25.2643 8.63256 25.3113 8.69853 25.3572 8.76786C25.403 8.83719 25.4466 8.90764 25.4902 8.98144C25.5327 9.05524 25.5741 9.13128 25.6143 9.20955C25.6546 9.28783 25.6937 9.36946 25.7306 9.45332C25.7675 9.53719 25.8044 9.62441 25.8402 9.71386C25.876 9.80332 25.9107 9.89613 25.9442 9.99118C25.9778 10.0862 26.0102 10.1846 26.0426 10.2864C26.075 10.3881 26.1052 10.4921 26.1365 10.6006C26.1678 10.7091 26.1969 10.8198 26.2271 10.9338C26.2562 11.0479 26.2853 11.1664 26.3143 11.2872C26.3434 11.4079 26.3714 11.5332 26.3993 11.6618C26.4273 11.7904 26.4552 11.9223 26.4832 12.0576C26.5111 12.1929 26.5391 12.3327 26.5659 12.4758C26.5939 12.619 26.6218 12.7666 26.6487 12.9175C26.6766 12.7666 26.7046 12.619 26.7314 12.4758C26.7594 12.3327 26.7862 12.1929 26.8142 12.0576C26.8421 11.9223 26.8701 11.7904 26.898 11.6618C26.926 11.5332 26.9539 11.4091 26.983 11.2872C27.0121 11.1664 27.0412 11.0479 27.0702 10.9338C27.0993 10.8198 27.1295 10.7079 27.1608 10.6006C27.191 10.4933 27.2223 10.3881 27.2547 10.2864C27.2872 10.1846 27.3196 10.0862 27.3531 9.99118C27.3867 9.89613 27.4214 9.80332 27.4571 9.71386C27.4929 9.62441 27.5287 9.53719 27.5667 9.45332C27.6047 9.36946 27.6428 9.28783 27.683 9.20955C27.7233 9.13128 27.7646 9.05524 27.8071 8.98144C27.8496 8.90764 27.8944 8.83719 27.9402 8.76786C27.986 8.69853 28.033 8.63256 28.0822 8.5677C28.1314 8.50284 28.1817 8.44134 28.2343 8.38096C28.2868 8.32058 28.3405 8.26243 28.3964 8.20652C28.4523 8.15061 28.5105 8.09582 28.5709 8.04438C28.6312 7.99182 28.6927 7.9415 28.7576 7.8923C28.8225 7.8431 28.8884 7.79614 28.9578 7.75029C29.0271 7.70444 29.0975 7.66084 29.1713 7.61723C29.2451 7.57473 29.3212 7.53336 29.3994 7.4931C29.4777 7.45285 29.5594 7.41371 29.6432 7.37681C29.7271 7.33879 29.8143 7.30301 29.9038 7.26723C29.9932 7.23144 30.086 7.19678 30.1811 7.16323C30.2761 7.12969 30.3745 7.09726 30.4763 7.06483C30.578 7.0324 30.682 7.00109 30.7905 6.9709C30.899 6.94071 31.0097 6.91052 31.1237 6.88033C31.2378 6.85125 31.3563 6.82218 31.4771 6.79311C31.5978 6.76403 31.7231 6.73608 31.8517 6.70812C31.9803 6.68017 32.1122 6.65221 32.2475 6.62426C32.3828 6.5963 32.5226 6.56835 32.6657 6.54151C32.8088 6.51355 32.9564 6.48672 33.1074 6.45876C32.9564 6.43081 32.8088 6.40285 32.6657 6.37602C32.5226 6.34806 32.3828 6.32122 32.2475 6.29327C32.1122 6.26531 31.9803 6.23736 31.8517 6.2094C31.7231 6.18145 31.599 6.15349 31.4771 6.12442C31.3552 6.09535 31.2378 6.06627 31.1237 6.0372C31.0097 6.00813 30.8978 5.97793 30.7905 5.94662C30.6831 5.91531 30.578 5.88512 30.4763 5.85269C30.3745 5.82027 30.2761 5.78784 30.1811 5.75429C30.086 5.72075 29.9932 5.68608 29.9038 5.6503C29.8143 5.61452 29.7271 5.57873 29.6432 5.54071C29.5594 5.5027 29.4777 5.46468 29.3994 5.42442C29.3212 5.38417 29.2451 5.34279 29.1713 5.3003C29.0975 5.25781 29.0271 5.21308 28.9578 5.16723C28.8884 5.12139 28.8225 5.07442 28.7576 5.02522C28.6927 4.97602 28.6312 4.9257 28.5709 4.87315C28.5105 4.82059 28.4523 4.76692 28.3964 4.71101C28.3405 4.6551 28.2857 4.59695 28.2343 4.53657C28.1817 4.47618 28.1314 4.41468 28.0822 4.34982C28.033 4.28497 27.986 4.21899 27.9402 4.14967C27.8944 4.08034 27.8507 4.00989 27.8071 3.93609C27.7646 3.86229 27.7233 3.78625 27.683 3.70797C27.6428 3.6297 27.6036 3.54807 27.5667 3.4642C27.5298 3.38034 27.4929 3.29312 27.4571 3.20366C27.4214 3.11421 27.3867 3.02139 27.3531 2.92635C27.3196 2.8313 27.2872 2.7329 27.2547 2.63114C27.2223 2.52938 27.1921 2.42539 27.1608 2.31692C27.1306 2.20958 27.1004 2.09776 27.0702 1.9837C27.0412 1.86964 27.0121 1.75111 26.983 1.63035C26.9539 1.50958 26.926 1.38434 26.898 1.25575C26.8701 1.12715 26.8421 0.995204 26.8142 0.859901C26.7862 0.724598 26.7583 0.584822 26.7314 0.441692C26.7035 0.298561 26.6755 0.150958 26.6487 0Z" fill="url(#paint0_linear_873_11206)"/>
<path d="M31.2112 35.0825C31.1832 35.2335 31.1553 35.3811 31.1284 35.5242C31.1005 35.6673 31.0736 35.8071 31.0457 35.9424C31.0177 36.0777 30.9898 36.2097 30.9618 36.3383C30.9339 36.4669 30.9059 36.591 30.8768 36.7129C30.8478 36.8336 30.8187 36.9522 30.7896 37.0662C30.7605 37.1803 30.7303 37.2921 30.699 37.3994C30.6677 37.5068 30.6375 37.6119 30.6051 37.7137C30.5727 37.8154 30.5403 37.9138 30.5067 38.0089C30.4732 38.1039 30.4385 38.1967 30.4027 38.2862C30.3669 38.3756 30.3312 38.4629 30.2931 38.5467C30.2551 38.6306 30.2171 38.7122 30.1768 38.7905C30.1366 38.8688 30.0952 38.9448 30.0527 39.0186C30.0102 39.0924 29.9655 39.1629 29.9196 39.2322C29.8738 39.3015 29.8268 39.3675 29.7776 39.4323C29.7284 39.4972 29.6781 39.5587 29.6256 39.6191C29.573 39.6795 29.5193 39.7376 29.4634 39.7935C29.4075 39.8494 29.3494 39.9042 29.289 39.9557C29.2286 40.0082 29.1671 40.0585 29.1022 40.1077C29.0374 40.1569 28.9714 40.2039 28.9021 40.2498C28.8328 40.2956 28.7623 40.3392 28.6885 40.3828C28.6147 40.4253 28.5387 40.4667 28.4604 40.5069C28.3821 40.5472 28.3005 40.5863 28.2166 40.6232C28.1328 40.6613 28.0455 40.697 27.9561 40.7328C27.8666 40.7686 27.7738 40.8033 27.6788 40.8368C27.5837 40.8704 27.4853 40.9028 27.3836 40.9352C27.2818 40.9676 27.1778 40.9978 27.0694 41.0291C26.962 41.0593 26.8502 41.0895 26.7361 41.1197C26.6221 41.1488 26.5035 41.1779 26.3828 41.2069C26.262 41.236 26.1368 41.264 26.0082 41.2919C25.8796 41.3199 25.7476 41.3478 25.6123 41.3758C25.477 41.4037 25.3373 41.4317 25.1941 41.4585C25.051 41.4865 24.9034 41.5144 24.7524 41.5413C24.9034 41.5692 25.051 41.5972 25.1941 41.624C25.3373 41.652 25.477 41.6788 25.6123 41.7068C25.7476 41.7347 25.8796 41.7627 26.0082 41.7906C26.1368 41.8186 26.2609 41.8466 26.3828 41.8756C26.5047 41.9047 26.6221 41.9338 26.7361 41.9628C26.8502 41.9919 26.962 42.0221 27.0694 42.0534C27.1767 42.0836 27.2818 42.1149 27.3836 42.1474C27.4853 42.1798 27.5837 42.2122 27.6788 42.2458C27.7738 42.2793 27.8666 42.314 27.9561 42.3497C28.0455 42.3855 28.1328 42.4213 28.2166 42.4593C28.3005 42.4973 28.3821 42.5354 28.4604 42.5756C28.5387 42.6159 28.6147 42.6573 28.6885 42.6997C28.7623 42.7422 28.8328 42.787 28.9021 42.8328C28.9714 42.8787 29.0374 42.9256 29.1022 42.9748C29.1671 43.024 29.2286 43.0743 29.289 43.1269C29.3494 43.1795 29.4075 43.2331 29.4634 43.289C29.5193 43.345 29.5741 43.4031 29.6256 43.4635C29.6781 43.5239 29.7284 43.5854 29.7776 43.6502C29.8268 43.7151 29.8738 43.7811 29.9196 43.8504C29.9655 43.9197 30.0091 43.9902 30.0527 44.064C30.0952 44.1378 30.1366 44.2138 30.1768 44.2921C30.2171 44.3703 30.2562 44.452 30.2931 44.5358C30.33 44.6197 30.3669 44.7069 30.4027 44.7964C30.4385 44.8858 30.4732 44.9787 30.5067 45.0737C30.5403 45.1687 30.5727 45.2671 30.6051 45.3689C30.6375 45.4707 30.6677 45.5747 30.699 45.6831C30.7303 45.7916 30.7594 45.9023 30.7896 46.0163C30.8187 46.1304 30.8478 46.2489 30.8768 46.3697C30.9059 46.4905 30.9339 46.6157 30.9618 46.7443C30.9898 46.8729 31.0177 47.0048 31.0457 47.1401C31.0736 47.2754 31.1016 47.4152 31.1284 47.5584C31.1564 47.7015 31.1843 47.8491 31.2112 48C31.2391 47.8491 31.2671 47.7015 31.2939 47.5584C31.3219 47.4152 31.3487 47.2754 31.3767 47.1401C31.4046 47.0048 31.4326 46.8729 31.4605 46.7443C31.4885 46.6157 31.5164 46.4916 31.5455 46.3697C31.5746 46.2489 31.6037 46.1304 31.6327 46.0163C31.6618 45.9023 31.692 45.7905 31.7233 45.6831C31.7546 45.5758 31.7848 45.4707 31.8172 45.3689C31.8497 45.2671 31.8821 45.1687 31.9156 45.0737C31.9492 44.9787 31.9838 44.8858 32.0196 44.7964C32.0554 44.7069 32.0912 44.6197 32.1292 44.5358C32.1672 44.452 32.2053 44.3703 32.2455 44.2921C32.2858 44.2138 32.3271 44.1378 32.3696 44.064C32.4121 43.9902 32.4568 43.9197 32.5027 43.8504C32.5485 43.7811 32.5955 43.7151 32.6447 43.6502C32.6939 43.5854 32.7442 43.5239 32.7968 43.4635C32.8493 43.4031 32.903 43.345 32.9589 43.289C33.0148 43.2331 33.073 43.1783 33.1334 43.1269C33.1937 43.0743 33.2552 43.024 33.3201 42.9748C33.385 42.9256 33.4509 42.8787 33.5203 42.8328C33.5896 42.787 33.66 42.7434 33.7338 42.6997C33.8076 42.6573 33.8837 42.6159 33.9619 42.5756C34.0402 42.5354 34.1219 42.4962 34.2057 42.4593C34.2896 42.4213 34.3768 42.3855 34.4663 42.3497C34.5557 42.314 34.6485 42.2793 34.7436 42.2458C34.8386 42.2122 34.937 42.1798 35.0388 42.1474C35.1405 42.1149 35.2445 42.0836 35.353 42.0534C35.4615 42.0232 35.5722 41.993 35.6862 41.9628C35.8003 41.9338 35.9188 41.9047 36.0396 41.8756C36.1603 41.8466 36.2856 41.8186 36.4142 41.7906C36.5428 41.7627 36.6747 41.7347 36.81 41.7068C36.9453 41.6788 37.0851 41.6509 37.2282 41.624C37.3713 41.5961 37.5189 41.5692 37.6699 41.5413C37.5189 41.5133 37.3713 41.4854 37.2282 41.4585C37.0851 41.4306 36.9453 41.4037 36.81 41.3758C36.6747 41.3478 36.5428 41.3199 36.4142 41.2919C36.2856 41.264 36.1614 41.236 36.0396 41.2069C35.9188 41.1779 35.8003 41.1488 35.6862 41.1197C35.5722 41.0906 35.4603 41.0605 35.353 41.0291C35.2456 40.9978 35.1405 40.9676 35.0388 40.9352C34.937 40.9028 34.8386 40.8704 34.7436 40.8368C34.6485 40.8033 34.5557 40.7686 34.4663 40.7328C34.3768 40.697 34.2896 40.6613 34.2057 40.6232C34.1219 40.5852 34.0402 40.5472 33.9619 40.5069C33.8837 40.4667 33.8076 40.4253 33.7338 40.3828C33.66 40.3403 33.5896 40.2956 33.5203 40.2498C33.4509 40.2039 33.385 40.1569 33.3201 40.1077C33.2552 40.0585 33.1937 40.0082 33.1334 39.9557C33.073 39.9031 33.0148 39.8494 32.9589 39.7935C32.903 39.7376 32.8482 39.6795 32.7968 39.6191C32.7442 39.5587 32.6939 39.4972 32.6447 39.4323C32.5955 39.3675 32.5485 39.3015 32.5027 39.2322C32.4568 39.1629 32.4132 39.0924 32.3696 39.0186C32.3271 38.9448 32.2858 38.8688 32.2455 38.7905C32.2053 38.7122 32.1661 38.6306 32.1292 38.5467C32.0912 38.4629 32.0554 38.3756 32.0196 38.2862C31.9838 38.1967 31.9492 38.1039 31.9156 38.0089C31.8821 37.9138 31.8497 37.8154 31.8172 37.7137C31.7848 37.6119 31.7546 37.5079 31.7233 37.3994C31.692 37.291 31.6629 37.1803 31.6327 37.0662C31.6037 36.9522 31.5746 36.8336 31.5455 36.7129C31.5164 36.5921 31.4885 36.4669 31.4605 36.3383C31.4326 36.2097 31.4046 36.0777 31.3767 35.9424C31.3487 35.8071 31.3208 35.6673 31.2939 35.5242C31.266 35.3811 31.238 35.2335 31.2112 35.0825Z" fill="url(#paint1_linear_873_11206)"/>
<path d="M16.7898 13.0049C16.7171 13.3985 16.6455 13.7809 16.574 14.1544C16.5024 14.5268 16.4297 14.8902 16.3582 15.2435C16.2866 15.5969 16.2139 15.9402 16.1412 16.2734C16.0686 16.6066 15.9948 16.932 15.9198 17.2462C15.8449 17.5616 15.77 17.868 15.6928 18.1654C15.6157 18.4628 15.5385 18.7513 15.4591 19.032C15.3797 19.3127 15.2981 19.5844 15.2154 19.8472C15.1326 20.1111 15.0476 20.366 14.9593 20.6143C14.8721 20.8625 14.7826 21.1018 14.6898 21.3355C14.597 21.5692 14.5031 21.794 14.4047 22.012C14.3063 22.2301 14.2056 22.4414 14.1016 22.6461C13.9976 22.8507 13.8903 23.0486 13.7785 23.2398C13.6678 23.431 13.5526 23.6167 13.4341 23.7956C13.3155 23.9745 13.1925 24.1478 13.0651 24.3144C12.9376 24.481 12.8068 24.6432 12.6703 24.7997C12.5339 24.9563 12.393 25.1072 12.2477 25.2526C12.1023 25.398 11.9513 25.5389 11.7948 25.6753C11.6382 25.8117 11.4772 25.9425 11.3095 26.07C11.1418 26.1975 10.9696 26.3205 10.7906 26.439C10.6117 26.5575 10.4261 26.6727 10.2349 26.7834C10.0437 26.8941 9.84576 27.0026 9.64113 27.1066C9.4365 27.2106 9.22516 27.3112 9.00711 27.4096C8.78906 27.508 8.56319 27.602 8.3306 27.6948C8.09802 27.7876 7.8576 27.877 7.60936 27.9643C7.36112 28.0515 7.10617 28.1365 6.84228 28.2203C6.57838 28.3031 6.30666 28.3847 6.02711 28.4641C5.74644 28.5435 5.45794 28.6218 5.1605 28.6978C4.86306 28.775 4.55667 28.8499 4.24134 28.9248C3.92601 28.9997 3.60173 29.0724 3.2685 29.1462C2.93528 29.2189 2.59199 29.2916 2.23864 29.3631C1.88529 29.4347 1.52299 29.5074 1.14951 29.5789C0.77715 29.6505 0.393607 29.7232 0 29.7948C0.393607 29.8674 0.776032 29.939 1.14951 30.0106C1.52187 30.0821 1.88529 30.1548 2.23864 30.2264C2.59199 30.298 2.93528 30.3706 3.2685 30.4433C3.60173 30.516 3.92712 30.5898 4.24134 30.6647C4.55667 30.7396 4.86306 30.8146 5.1605 30.8917C5.45794 30.9689 5.74644 31.046 6.02711 31.1254C6.30778 31.2048 6.5795 31.2864 6.84228 31.3692C7.10505 31.4519 7.36112 31.5369 7.60936 31.6253C7.8576 31.7125 8.0969 31.8019 8.3306 31.8948C8.56431 31.9876 8.78906 32.0815 9.00711 32.1799C9.22516 32.2783 9.4365 32.3789 9.64113 32.4829C9.84576 32.5869 10.0437 32.6943 10.2349 32.8061C10.4261 32.9168 10.6117 33.032 10.7906 33.1505C10.9696 33.269 11.1429 33.392 11.3095 33.5195C11.4772 33.647 11.6382 33.7778 11.7948 33.9142C11.9513 34.0507 12.1023 34.1915 12.2477 34.3369C12.393 34.4823 12.5339 34.6332 12.6703 34.7898C12.8068 34.9463 12.9376 35.1074 13.0651 35.2751C13.1925 35.4428 13.3155 35.615 13.4341 35.7939C13.5526 35.9729 13.6678 36.1585 13.7785 36.3497C13.8892 36.5409 13.9976 36.7388 14.1016 36.9435C14.2056 37.1481 14.3063 37.3594 14.4047 37.5775C14.5031 37.7955 14.597 38.0214 14.6898 38.254C14.7826 38.4866 14.8721 38.727 14.9593 38.9752C15.0465 39.2235 15.1315 39.4784 15.2154 39.7423C15.2981 40.0062 15.3797 40.2779 15.4591 40.5575C15.5385 40.8371 15.6168 41.1267 15.6928 41.4241C15.77 41.7216 15.8449 42.0279 15.9198 42.3433C15.9948 42.6586 16.0674 42.9829 16.1412 43.3161C16.2139 43.6493 16.2866 43.9926 16.3582 44.346C16.4297 44.6993 16.5024 45.0616 16.574 45.4351C16.6455 45.8075 16.7182 46.191 16.7898 46.5846C16.8625 46.191 16.934 45.8086 17.0056 45.4351C17.0772 45.0628 17.1499 44.6993 17.2214 44.346C17.293 43.9926 17.3657 43.6493 17.4384 43.3161C17.511 42.9829 17.5848 42.6575 17.6598 42.3433C17.7347 42.0279 17.8096 41.7216 17.8868 41.4241C17.9639 41.1267 18.0411 40.8382 18.1205 40.5575C18.1998 40.2768 18.2815 40.0051 18.3642 39.7423C18.447 39.4784 18.532 39.2235 18.6203 38.9752C18.7075 38.727 18.797 38.4877 18.8898 38.254C18.9826 38.0214 19.0765 37.7955 19.1749 37.5775C19.2733 37.3594 19.374 37.1481 19.478 36.9435C19.5819 36.7388 19.6893 36.5409 19.8011 36.3497C19.9118 36.1585 20.027 35.9729 20.1455 35.7939C20.264 35.615 20.3871 35.4417 20.5145 35.2751C20.642 35.1074 20.7728 34.9463 20.9093 34.7898C21.0457 34.6332 21.1866 34.4823 21.3319 34.3369C21.4773 34.1915 21.6283 34.0507 21.7848 33.9142C21.9414 33.7778 22.1024 33.647 22.2701 33.5195C22.4378 33.392 22.61 33.269 22.7889 33.1505C22.9679 33.032 23.1535 32.9168 23.3447 32.8061C23.5359 32.6954 23.7338 32.5869 23.9385 32.4829C24.1431 32.3789 24.3544 32.2783 24.5725 32.1799C24.7905 32.0815 25.0164 31.9876 25.249 31.8948C25.4816 31.8019 25.722 31.7125 25.9702 31.6253C26.2185 31.538 26.4734 31.4531 26.7373 31.3692C27.0012 31.2853 27.2729 31.2048 27.5525 31.1254C27.8332 31.046 28.1217 30.9678 28.4191 30.8917C28.7165 30.8146 29.0229 30.7396 29.3383 30.6647C29.6536 30.5898 29.9779 30.5171 30.3111 30.4433C30.6443 30.3706 30.9876 30.298 31.341 30.2264C31.6943 30.1548 32.0566 30.0821 32.4301 30.0106C32.8024 29.939 33.186 29.8663 33.5796 29.7948C33.186 29.7221 32.8036 29.6505 32.4301 29.5789C32.0577 29.5074 31.6943 29.4347 31.341 29.3631C30.9876 29.2916 30.6443 29.2189 30.3111 29.1462C29.9779 29.0735 29.6525 28.9997 29.3383 28.9248C29.0229 28.8499 28.7165 28.775 28.4191 28.6978C28.1217 28.6206 27.8332 28.5435 27.5525 28.4641C27.2718 28.3847 27.0001 28.3031 26.7373 28.2203C26.4734 28.1376 26.2185 28.0526 25.9702 27.9643C25.722 27.877 25.4827 27.7876 25.249 27.6948C25.0164 27.602 24.7905 27.508 24.5725 27.4096C24.3544 27.3112 24.1431 27.2106 23.9385 27.1066C23.7338 27.0026 23.5359 26.8952 23.3447 26.7834C23.1535 26.6727 22.9679 26.5575 22.7889 26.439C22.61 26.3205 22.4367 26.1975 22.2701 26.07C22.1024 25.9425 21.9414 25.8117 21.7848 25.6753C21.6283 25.5389 21.4773 25.398 21.3319 25.2526C21.1866 25.1072 21.0457 24.9563 20.9093 24.7997C20.7728 24.6432 20.642 24.4822 20.5145 24.3144C20.3871 24.1467 20.264 23.9745 20.1455 23.7956C20.027 23.6167 19.9118 23.431 19.8011 23.2398C19.6904 23.0486 19.5819 22.8507 19.478 22.6461C19.374 22.4414 19.2733 22.2301 19.1749 22.012C19.0765 21.794 18.9826 21.5681 18.8898 21.3355C18.797 21.1029 18.7075 20.8625 18.6203 20.6143C18.5331 20.366 18.4481 20.1111 18.3642 19.8472C18.2815 19.5833 18.1998 19.3116 18.1205 19.032C18.0411 18.7513 17.9628 18.4628 17.8868 18.1654C17.8096 17.868 17.7347 17.5616 17.6598 17.2462C17.5848 16.9309 17.5122 16.6066 17.4384 16.2734C17.3657 15.9402 17.293 15.5969 17.2214 15.2435C17.1499 14.8902 17.0772 14.5279 17.0056 14.1544C16.934 13.782 16.8614 13.3985 16.7898 13.0049Z" fill="url(#paint2_linear_873_11206)"/>
<path d="M40.4666 0.340576C40.3939 0.734185 40.3223 1.11661 40.2507 1.49009C40.1792 1.86246 40.1065 2.22587 40.0349 2.57923C39.9634 2.93258 39.8907 3.27587 39.818 3.60909C39.7453 3.94232 39.6715 4.26772 39.5966 4.58193C39.5217 4.89727 39.4468 5.20366 39.3696 5.5011C39.2924 5.79854 39.2153 6.08704 39.1359 6.36771C39.0565 6.64838 38.9749 6.9201 38.8921 7.18288C38.8094 7.44678 38.7244 7.70173 38.6361 7.94997C38.5488 8.19822 38.4594 8.43751 38.3666 8.67122C38.2738 8.9038 38.1798 9.12968 38.0814 9.34773C37.983 9.56578 37.8824 9.77712 37.7784 9.98175C37.6744 10.1864 37.5671 10.3843 37.4552 10.5755C37.3445 10.7667 37.2294 10.9524 37.1108 11.1313C36.9923 11.3102 36.8693 11.4835 36.7418 11.6501C36.6143 11.8179 36.4835 11.9789 36.3471 12.1354C36.2107 12.292 36.0698 12.4429 35.9244 12.5883C35.7791 12.7337 35.6281 12.8746 35.4715 13.011C35.315 13.1474 35.154 13.2782 34.9862 13.4057C34.8185 13.5332 34.6463 13.6562 34.4674 13.7747C34.2885 13.8932 34.1029 14.0084 33.9117 14.1191C33.7204 14.2298 33.5225 14.3383 33.3179 14.4423C33.1133 14.5463 32.9019 14.6469 32.6839 14.7453C32.4658 14.8437 32.2399 14.9376 32.0074 15.0305C31.7748 15.1233 31.5344 15.2127 31.2861 15.2999C31.0379 15.3872 30.7829 15.4721 30.519 15.556C30.2551 15.6388 29.9834 15.7204 29.7039 15.7998C29.4232 15.8792 29.1347 15.9575 28.8373 16.0335C28.5398 16.1106 28.2334 16.1856 27.9181 16.2605C27.6028 16.3354 27.2785 16.4081 26.9453 16.4819C26.612 16.5546 26.2687 16.6273 25.9154 16.6988C25.562 16.7704 25.1997 16.8431 24.8263 16.9146C24.4539 16.9862 24.0704 17.0589 23.6768 17.1305C24.0704 17.2031 24.4528 17.2747 24.8263 17.3463C25.1986 17.4178 25.562 17.4905 25.9154 17.5621C26.2687 17.6336 26.612 17.7063 26.9453 17.779C27.2785 17.8517 27.6039 17.9255 27.9181 18.0004C28.2334 18.0753 28.5398 18.1503 28.8373 18.2274C29.1347 18.3046 29.4232 18.3817 29.7039 18.4611C29.9845 18.5405 30.2563 18.6221 30.519 18.7049C30.7818 18.7876 31.0379 18.8726 31.2861 18.961C31.5344 19.0493 31.7737 19.1376 32.0074 19.2304C32.2411 19.3233 32.4658 19.4172 32.6839 19.5156C32.9019 19.614 33.1133 19.7146 33.3179 19.8186C33.5225 19.9226 33.7204 20.03 33.9117 20.1418C34.1029 20.2525 34.2885 20.3677 34.4674 20.4862C34.6463 20.6047 34.8196 20.7277 34.9862 20.8552C35.1529 20.9827 35.315 21.1135 35.4715 21.2499C35.6281 21.3863 35.7791 21.5272 35.9244 21.6726C36.0698 21.818 36.2107 21.9689 36.3471 22.1255C36.4835 22.282 36.6143 22.4431 36.7418 22.6108C36.8693 22.7785 36.9923 22.9507 37.1108 23.1296C37.2294 23.3085 37.3445 23.4942 37.4552 23.6854C37.5659 23.8766 37.6744 24.0745 37.7784 24.2791C37.8824 24.4838 37.983 24.6951 38.0814 24.9132C38.1798 25.1312 38.2738 25.3571 38.3666 25.5897C38.4594 25.8223 38.5488 26.0627 38.6361 26.3109C38.7233 26.5592 38.8083 26.8141 38.8921 27.078C38.9749 27.3419 39.0565 27.6136 39.1359 27.8932C39.2153 28.1739 39.2936 28.4624 39.3696 28.7598C39.4468 29.0572 39.5217 29.3636 39.5966 29.679C39.6715 29.9943 39.7442 30.3186 39.818 30.6518C39.8907 30.985 39.9634 31.3283 40.0349 31.6817C40.1065 32.035 40.1792 32.3973 40.2507 32.7708C40.3223 33.1432 40.395 33.5267 40.4666 33.9203C40.5392 33.5267 40.6108 33.1443 40.6824 32.7708C40.7539 32.3984 40.8266 32.035 40.8982 31.6817C40.9697 31.3283 41.0424 30.985 41.1151 30.6518C41.1878 30.3186 41.2616 29.9932 41.3365 29.679C41.4114 29.3636 41.4864 29.0572 41.5635 28.7598C41.6407 28.4624 41.7178 28.1739 41.7972 27.8932C41.8766 27.6125 41.9582 27.3408 42.041 27.078C42.1237 26.8152 42.2087 26.5592 42.297 26.3109C42.3854 26.0627 42.4737 25.8234 42.5665 25.5897C42.6593 25.356 42.7533 25.1312 42.8517 24.9132C42.9501 24.6951 43.0507 24.4838 43.1547 24.2791C43.2587 24.0745 43.366 23.8766 43.4779 23.6854C43.5886 23.4942 43.7037 23.3085 43.8223 23.1296C43.9408 22.9507 44.0638 22.7774 44.1913 22.6108C44.3188 22.4431 44.4496 22.282 44.586 22.1255C44.7224 21.9689 44.8633 21.818 45.0087 21.6726C45.1541 21.5272 45.305 21.3863 45.4616 21.2499C45.6181 21.1135 45.7791 20.9827 45.9469 20.8552C46.1146 20.7277 46.2868 20.6047 46.4657 20.4862C46.6446 20.3677 46.8302 20.2525 47.0214 20.1418C47.2127 20.0311 47.4106 19.9226 47.6152 19.8186C47.8198 19.7146 48.0312 19.614 48.2492 19.5156C48.4673 19.4172 48.6932 19.3233 48.9257 19.2304C49.1583 19.1376 49.3987 19.0482 49.647 18.961C49.8952 18.8737 50.1502 18.7888 50.4141 18.7049C50.678 18.621 50.9497 18.5405 51.2292 18.4611C51.5099 18.3817 51.7984 18.3034 52.0958 18.2274C52.3933 18.1503 52.6997 18.0753 53.015 18.0004C53.3303 17.9255 53.6546 17.8528 53.9878 17.779C54.3211 17.7063 54.6644 17.6336 55.0177 17.5621C55.3711 17.4905 55.7334 17.4178 56.1068 17.3463C56.4792 17.2747 56.8627 17.202 57.2563 17.1305C56.8627 17.0578 56.4803 16.9862 56.1068 16.9146C55.7345 16.8431 55.3711 16.7704 55.0177 16.6988C54.6644 16.6273 54.3211 16.5546 53.9878 16.4819C53.6546 16.4092 53.3292 16.3354 53.015 16.2605C52.6997 16.1856 52.3933 16.1106 52.0958 16.0335C51.7984 15.9563 51.5099 15.8792 51.2292 15.7998C50.9486 15.7204 50.6768 15.6388 50.4141 15.556C50.1502 15.4733 49.8952 15.3883 49.647 15.2999C49.3987 15.2127 49.1594 15.1233 48.9257 15.0305C48.692 14.9376 48.4673 14.8437 48.2492 14.7453C48.0312 14.6469 47.8198 14.5463 47.6152 14.4423C47.4106 14.3383 47.2127 14.2309 47.0214 14.1191C46.8302 14.0084 46.6446 13.8932 46.4657 13.7747C46.2868 13.6562 46.1135 13.5332 45.9469 13.4057C45.7791 13.2782 45.6181 13.1474 45.4616 13.011C45.305 12.8746 45.1541 12.7337 45.0087 12.5883C44.8633 12.4429 44.7224 12.292 44.586 12.1354C44.4496 11.9789 44.3188 11.8179 44.1913 11.6501C44.0638 11.4824 43.9408 11.3102 43.8223 11.1313C43.7037 10.9524 43.5886 10.7667 43.4779 10.5755C43.3672 10.3843 43.2587 10.1864 43.1547 9.98175C43.0507 9.77712 42.9501 9.56578 42.8517 9.34773C42.7533 9.12968 42.6593 8.9038 42.5665 8.67122C42.4737 8.43863 42.3843 8.19822 42.297 7.94997C42.2098 7.70173 42.1248 7.44678 42.041 7.18288C41.9582 6.91899 41.8766 6.64726 41.7972 6.36771C41.7178 6.08816 41.6395 5.79854 41.5635 5.5011C41.4875 5.20366 41.4114 4.89727 41.3365 4.58193C41.2616 4.2666 41.1889 3.94232 41.1151 3.60909C41.0424 3.27587 40.9697 2.93258 40.8982 2.57923C40.8266 2.22587 40.7539 1.86357 40.6824 1.49009C40.6108 1.11773 40.5381 0.734185 40.4666 0.340576Z" fill="url(#paint3_linear_873_11206)"/>
<defs>
<linearGradient id="paint0_linear_873_11206" x1="33.7264" y1="-0.672794" x2="19.0662" y2="11.3958" gradientUnits="userSpaceOnUse">
<stop stop-color="#01A3C2"/>
<stop offset="1" stop-color="#B2F1FE"/>
</linearGradient>
<linearGradient id="paint1_linear_873_11206" x1="38.2889" y1="34.4097" x2="23.6287" y2="46.4783" gradientUnits="userSpaceOnUse">
<stop stop-color="#01A3C2"/>
<stop offset="1" stop-color="#B2F1FE"/>
</linearGradient>
<linearGradient id="paint2_linear_873_11206" x1="35.1887" y1="11.2559" x2="-2.9213" y2="42.6288" gradientUnits="userSpaceOnUse">
<stop stop-color="#01A3C2"/>
<stop offset="1" stop-color="#B2F1FE"/>
</linearGradient>
<linearGradient id="paint3_linear_873_11206" x1="58.8654" y1="-1.40839" x2="20.7555" y2="29.9644" gradientUnits="userSpaceOnUse">
<stop stop-color="#01A3C2"/>
<stop offset="1" stop-color="#B2F1FE"/>
</linearGradient>
</defs>
</svg>
