<svg width="64" height="64" viewBox="0 0 64 64" fill="none" xmlns="http://www.w3.org/2000/svg">
<rect width="64" height="64" rx="8" fill="#00A5C5"/>
<path fill-rule="evenodd" clip-rule="evenodd" d="M32 14C30.5762 14 29.21 14.5652 28.202 15.5731L26.5946 17.1804C26.2605 17.5099 25.811 17.6959 25.3418 17.6988H23.072C22.3663 17.6986 21.6675 17.8374 21.0155 18.1073C20.3636 18.3772 19.7711 18.773 19.2722 19.2719C18.7732 19.7709 18.3774 20.3633 18.1075 21.0152C17.8376 21.6672 17.6987 22.3659 17.699 23.0716V25.343C17.6961 25.8122 17.5101 26.2617 17.1806 26.5958L15.5732 28.2031C14.5659 29.2103 14 30.5765 14 32.0009C14 33.4254 14.5659 34.7915 15.5732 35.7987L17.1806 37.406C17.5101 37.7401 17.6961 38.1896 17.699 38.6588V40.9303C17.699 42.3547 18.2649 43.7209 19.2722 44.7281C20.2795 45.7353 21.6457 46.3012 23.0702 46.3012H25.3418C25.8116 46.3012 26.2634 46.4884 26.5946 46.8196L28.202 48.4269C29.2093 49.4341 30.5755 50 32 50C33.4245 50 34.7907 49.4341 35.798 48.4269L37.4054 46.8196C37.7395 46.4901 38.189 46.3041 38.6582 46.3012H40.9298C42.3543 46.3012 43.7205 45.7353 44.7278 44.7281C45.7351 43.7209 46.301 42.3547 46.301 40.9303V38.6588C46.301 38.189 46.4882 37.7372 46.8194 37.406L48.4268 35.7987C49.4341 34.7915 50 33.4254 50 32.0009C50 30.5765 49.4341 29.2103 48.4268 28.2031L46.8194 26.5958C46.4899 26.2617 46.3039 25.8122 46.301 25.343V23.0716C46.301 21.6471 45.7351 20.281 44.7278 19.2737C43.7205 18.2665 42.3543 17.7006 40.9298 17.7006H38.6582C38.189 17.6977 37.7395 17.5117 37.4054 17.1822L35.798 15.5749C35.2996 15.0755 34.7076 14.6794 34.0559 14.4091C33.4042 14.1389 32.7055 13.9998 32 14ZM38.6294 27.9133C38.8052 27.7482 38.9461 27.5495 39.0436 27.3289C39.1411 27.1083 39.1933 26.8703 39.197 26.6292C39.2007 26.388 39.156 26.1486 39.0654 25.9251C38.9748 25.7016 38.8402 25.4985 38.6696 25.3281C38.499 25.1576 38.2958 25.0231 38.0722 24.9327C37.8486 24.8422 37.6092 24.7976 37.368 24.8016C37.1268 24.8055 36.8889 24.8578 36.6684 24.9555C36.4478 25.0531 36.2492 25.1941 36.0842 25.37L28.4288 33.0251L26.1302 30.7266C25.7927 30.3888 25.3348 30.199 24.8573 30.1988C24.3798 30.1987 23.9218 30.3882 23.5841 30.7257C23.2463 31.0632 23.0565 31.521 23.0563 31.9985C23.0562 32.4759 23.2457 32.9339 23.5832 33.2717L27.1562 36.8427C27.4937 37.1801 27.9515 37.3697 28.4288 37.3697C28.9061 37.3697 29.3638 37.1801 29.7014 36.8427L38.6294 27.9151V27.9133Z" fill="white"/>
</svg>
