<svg width="70" height="70" viewBox="0 0 70 70" fill="none" xmlns="http://www.w3.org/2000/svg">
<mask id="mask0_649_5725" style="mask-type:luminance" maskUnits="userSpaceOnUse" x="0" y="0" width="70" height="70">
<path d="M70 0H0V70H70V0Z" fill="white"/>
</mask>
<g mask="url(#mask0_649_5725)">
<path d="M35.0005 66.7741C17.5989 66.7741 3.32451 52.402 3.32451 35.0005C3.32451 31.0896 4.00951 27.3733 5.32973 23.9031L23.8552 61.201C24.1004 61.6933 24.3936 62.0805 24.9808 62.0805C25.5681 62.0805 25.8899 61.6841 26.1047 61.201L34.6096 42.0883C34.7091 41.8929 34.8059 41.6965 35.0014 41.6965C35.1968 41.6965 35.2936 41.8929 35.3914 42.0883L43.8981 61.201C44.1129 61.6823 44.4365 62.0805 45.0219 62.0805C45.6074 62.0805 45.9033 61.6915 46.1476 61.201L64.6749 23.9031C65.9933 27.3733 66.6783 31.0896 66.6783 35.0005C66.6783 52.402 52.4039 66.7741 35.0023 66.7741M35.0023 27.814C34.8069 27.814 34.7101 27.6185 34.6105 27.4221L24.6388 5.0347C27.8647 3.86016 31.3855 3.22678 35.0023 3.22678C38.6191 3.22678 42.14 3.86108 45.3658 5.0347L35.3923 27.4221C35.2946 27.6185 35.1968 27.814 35.0023 27.814ZM24.8822 50.7887C24.6867 50.7887 24.5899 50.5932 24.4922 50.3987L8.35921 17.8921C11.244 13.4916 15.106 9.77715 19.7488 7.18559L31.3339 32.9962C31.5303 33.4857 31.8235 33.5834 32.2153 33.5834H37.7866C38.1784 33.5834 38.4716 33.4857 38.6679 32.9962L50.253 7.18559C54.8959 9.77808 58.7597 13.4916 61.6426 17.8921L45.5115 50.3996C45.4138 50.595 45.316 50.7896 45.1215 50.7896C44.927 50.7896 44.8274 50.5941 44.7297 50.3996L38.6689 36.517C38.4725 36.0275 38.1793 35.9298 37.7875 35.9298H32.2162C31.8244 35.9298 31.5312 36.0275 31.3348 36.517L25.274 50.3996C25.1763 50.595 25.0786 50.7896 24.8822 50.7896M35.0023 70.0009C54.3602 70.0009 70.0028 54.3584 70.0028 35.0005C70.0028 15.6425 54.3584 0 35.0005 0C15.6425 0 0 15.6425 0 35.0005C0 54.3584 15.6425 70.0009 35.0005 70.0009" fill="#464646"/>
</g>
</svg>
