<svg width="64" height="64" viewBox="0 0 64 64" fill="none" xmlns="http://www.w3.org/2000/svg">
<rect width="64" height="64" rx="8" fill="#00A5C5"/>
<path fill-rule="evenodd" clip-rule="evenodd" d="M17.6001 21.2148C17.6001 19.4562 19.0149 18 20.8005 18H43.1997C44.9853 18 46.4001 19.458 46.4001 21.2148V37.8H17.6001V21.2148ZM32.0001 32.4C32.0001 31.9226 32.1897 31.4648 32.5273 31.1272C32.8649 30.7896 33.3227 30.6 33.8001 30.6H37.4001C37.8775 30.6 38.3353 30.7896 38.6729 31.1272C39.0105 31.4648 39.2001 31.9226 39.2001 32.4C39.2001 32.8774 39.0105 33.3352 38.6729 33.6728C38.3353 34.0104 37.8775 34.2 37.4001 34.2H33.8001C33.3227 34.2 32.8649 34.0104 32.5273 33.6728C32.1897 33.3352 32.0001 32.8774 32.0001 32.4ZM25.2969 22.158C25.46 21.9868 25.6552 21.8495 25.8714 21.7538C26.0875 21.658 26.3205 21.6059 26.5568 21.6002C26.7932 21.5945 27.0283 21.6354 27.2489 21.7206C27.4694 21.8058 27.671 21.9337 27.8421 22.0968L32.5671 26.5968C32.7435 26.7649 32.884 26.9671 32.98 27.1911C33.076 27.4151 33.1255 27.6563 33.1255 27.9C33.1255 28.1437 33.076 28.3849 32.98 28.6089C32.884 28.8329 32.7435 29.0351 32.5671 29.2032L27.8421 33.7032C27.4965 34.0326 27.0341 34.2112 26.5568 34.1997C26.0795 34.1883 25.6263 33.9876 25.2969 33.642C24.9675 33.2964 24.7889 32.834 24.8004 32.3567C24.8118 31.8794 25.0125 31.4262 25.3581 31.0968L28.7151 27.9L25.3581 24.7032C25.1869 24.5401 25.0496 24.3449 24.9539 24.1287C24.8581 23.9125 24.8059 23.6796 24.8003 23.4433C24.7946 23.2069 24.8355 22.9718 24.9207 22.7512C25.0059 22.5307 25.1338 22.3291 25.2969 22.158Z" fill="white"/>
<path d="M14 41.3999V43.1999C14 44.1547 14.3793 45.0704 15.0544 45.7455C15.7295 46.4206 16.6452 46.7999 17.6 46.7999H46.4C47.3548 46.7999 48.2705 46.4206 48.9456 45.7455C49.6207 45.0704 50 44.1547 50 43.1999V41.3999H14Z" fill="white"/>
</svg>
