<svg width="508" height="128" viewBox="0 0 508 128" fill="none" xmlns="http://www.w3.org/2000/svg">
<rect x="0.5" y="0.5" width="507" height="127" rx="63.5" fill="#25D366"/>
<rect x="0.5" y="0.5" width="507" height="127" rx="63.5" stroke="#1E1E1E"/>
<g clip-path="url(#clip0_1316_7136)">
<path d="M50 104L55.5804 83.4578C52.1384 77.4446 50.3265 70.625 50.3288 63.6385C50.338 41.7824 67.9853 24 89.6656 24C100.187 24.0046 110.065 28.1339 117.49 35.6255C124.916 43.1171 129.005 53.0789 129 63.6686C128.991 85.5247 111.344 103.309 89.6656 103.309H89.6495C83.0665 103.307 76.5962 101.643 70.8525 98.485L50 104ZM71.8182 91.3109L73.0116 92.0246C78.031 95.0254 83.7862 96.615 89.6518 96.6173H89.6656C107.685 96.6173 122.353 81.8357 122.36 63.6686C122.362 54.8655 118.966 46.586 112.792 40.3596C106.618 34.1309 98.4099 30.6991 89.6794 30.6968C71.6458 30.6968 56.9784 45.4761 56.9715 63.6431C56.9692 69.8672 58.6983 75.9314 61.9703 81.1776L62.7474 82.4243L59.4456 94.5828L71.8182 91.3109Z" fill="#1E1E1E"/>
<path fill-rule="evenodd" clip-rule="evenodd" d="M109.481 73.0974C109.235 72.685 108.58 72.437 107.598 71.9411C106.616 71.4452 101.783 69.0492 100.882 68.7179C99.9805 68.3865 99.3252 68.222 98.6698 69.2138C98.0145 70.2055 96.1314 72.437 95.5589 73.0974C94.9863 73.7602 94.4115 73.8413 93.4297 73.3454C92.4479 72.8495 89.2794 71.8021 85.5269 68.4282C82.6045 65.8028 80.6317 62.5587 80.0592 61.5669C79.4866 60.5751 79.9971 60.0398 80.4914 59.5463C80.9329 59.1037 81.4732 58.39 81.9653 57.8107C82.4574 57.2314 82.6206 56.8189 82.9471 56.1562C83.2736 55.4958 83.1104 54.9165 82.8643 54.4206C82.6183 53.9247 80.6524 49.0492 79.8338 47.0657C79.036 45.1354 78.2266 45.395 77.6219 45.3648C77.0494 45.3347 76.394 45.3301 75.7387 45.3301C75.0834 45.3301 74.0188 45.578 73.1175 46.5698C72.2162 47.5616 69.6777 49.9576 69.6777 54.833C69.6777 59.7085 73.2003 64.4194 73.69 65.0798C74.1821 65.7402 80.6202 75.746 90.4797 80.0352C92.825 81.0548 94.6552 81.6642 96.0831 82.1207C98.4376 82.8738 100.581 82.7672 102.273 82.5123C104.161 82.2273 108.088 80.1163 108.906 77.8014C109.725 75.4888 109.725 73.5053 109.479 73.0905L109.481 73.0974Z" fill="#1E1E1E"/>
</g>
<path d="M150.12 63.8C150.12 61.6027 150.611 59.64 151.592 57.912C152.595 56.1627 153.949 54.808 155.656 53.848C157.384 52.8667 159.315 52.376 161.448 52.376C163.944 52.376 166.131 53.016 168.008 54.296C169.885 55.576 171.197 57.3467 171.944 59.608H166.792C166.28 58.5413 165.555 57.7413 164.616 57.208C163.699 56.6747 162.632 56.408 161.416 56.408C160.115 56.408 158.952 56.7173 157.928 57.336C156.925 57.9333 156.136 58.7867 155.56 59.896C155.005 61.0053 154.728 62.3067 154.728 63.8C154.728 65.272 155.005 66.5733 155.56 67.704C156.136 68.8133 156.925 69.6773 157.928 70.296C158.952 70.8933 160.115 71.192 161.416 71.192C162.632 71.192 163.699 70.9253 164.616 70.392C165.555 69.8373 166.28 69.0267 166.792 67.96H171.944C171.197 70.2427 169.885 72.024 168.008 73.304C166.152 74.5627 163.965 75.192 161.448 75.192C159.315 75.192 157.384 74.712 155.656 73.752C153.949 72.7707 152.595 71.416 151.592 69.688C150.611 67.96 150.12 65.9973 150.12 63.8ZM185.755 57.016C187.099 57.016 188.293 57.3147 189.339 57.912C190.384 58.488 191.195 59.352 191.771 60.504C192.368 61.6347 192.667 63 192.667 64.6V75H188.187V65.208C188.187 63.8 187.835 62.7227 187.131 61.976C186.427 61.208 185.467 60.824 184.251 60.824C183.013 60.824 182.032 61.208 181.307 61.976C180.603 62.7227 180.251 63.8 180.251 65.208V75H175.771V51.32H180.251V59.48C180.827 58.712 181.595 58.1147 182.555 57.688C183.515 57.24 184.581 57.016 185.755 57.016ZM195.775 66.072C195.775 64.28 196.127 62.6907 196.831 61.304C197.556 59.9173 198.527 58.8507 199.743 58.104C200.98 57.3573 202.356 56.984 203.871 56.984C205.193 56.984 206.345 57.2507 207.327 57.784C208.329 58.3173 209.129 58.9893 209.727 59.8V57.272H214.239V75H209.727V72.408C209.151 73.24 208.351 73.9333 207.327 74.488C206.324 75.0213 205.161 75.288 203.839 75.288C202.345 75.288 200.98 74.904 199.743 74.136C198.527 73.368 197.556 72.2907 196.831 70.904C196.127 69.496 195.775 67.8853 195.775 66.072ZM209.727 66.136C209.727 65.048 209.513 64.12 209.087 63.352C208.66 62.5627 208.084 61.9653 207.359 61.56C206.633 61.1333 205.855 60.92 205.023 60.92C204.191 60.92 203.423 61.1227 202.719 61.528C202.015 61.9333 201.439 62.5307 200.991 63.32C200.564 64.088 200.351 65.0053 200.351 66.072C200.351 67.1387 200.564 68.0773 200.991 68.888C201.439 69.6773 202.015 70.2853 202.719 70.712C203.444 71.1387 204.212 71.352 205.023 71.352C205.855 71.352 206.633 71.1493 207.359 70.744C208.084 70.3173 208.66 69.72 209.087 68.952C209.513 68.1627 209.727 67.224 209.727 66.136ZM223.83 60.952V69.528C223.83 70.1253 223.969 70.5627 224.246 70.84C224.545 71.096 225.036 71.224 225.718 71.224H227.798V75H224.982C221.206 75 219.318 73.1653 219.318 69.496V60.952H217.206V57.272H219.318V52.888H223.83V57.272H227.798V60.952H223.83ZM246.518 75.288C244.811 75.288 243.275 74.9147 241.91 74.168C240.544 73.4 239.467 72.3227 238.678 70.936C237.91 69.5493 237.526 67.9493 237.526 66.136C237.526 64.3227 237.92 62.7227 238.71 61.336C239.52 59.9493 240.619 58.8827 242.006 58.136C243.392 57.368 244.939 56.984 246.646 56.984C248.352 56.984 249.899 57.368 251.286 58.136C252.672 58.8827 253.76 59.9493 254.55 61.336C255.36 62.7227 255.766 64.3227 255.766 66.136C255.766 67.9493 255.35 69.5493 254.517 70.936C253.707 72.3227 252.598 73.4 251.19 74.168C249.803 74.9147 248.246 75.288 246.518 75.288ZM246.518 71.384C247.328 71.384 248.086 71.192 248.79 70.808C249.515 70.4027 250.091 69.8053 250.518 69.016C250.944 68.2267 251.158 67.2667 251.158 66.136C251.158 64.4507 250.71 63.16 249.814 62.264C248.939 61.3467 247.862 60.888 246.582 60.888C245.302 60.888 244.224 61.3467 243.35 62.264C242.496 63.16 242.07 64.4507 242.07 66.136C242.07 67.8213 242.486 69.1227 243.318 70.04C244.171 70.936 245.238 71.384 246.518 71.384ZM268.876 57.016C270.988 57.016 272.694 57.688 273.996 59.032C275.297 60.3547 275.948 62.2107 275.948 64.6V75H271.468V65.208C271.468 63.8 271.116 62.7227 270.412 61.976C269.708 61.208 268.748 60.824 267.532 60.824C266.294 60.824 265.313 61.208 264.588 61.976C263.884 62.7227 263.532 63.8 263.532 65.208V75H259.052V57.272H263.532V59.48C264.129 58.712 264.886 58.1147 265.804 57.688C266.742 57.24 267.766 57.016 268.876 57.016ZM317.689 52.664L311.449 75H306.169L301.977 59.096L297.593 75L292.345 75.032L286.329 52.664H291.129L295.065 70.008L299.609 52.664H304.601L308.889 69.912L312.857 52.664H317.689ZM330.598 57.016C331.942 57.016 333.137 57.3147 334.182 57.912C335.228 58.488 336.038 59.352 336.614 60.504C337.212 61.6347 337.51 63 337.51 64.6V75H333.03V65.208C333.03 63.8 332.678 62.7227 331.974 61.976C331.27 61.208 330.31 60.824 329.094 60.824C327.857 60.824 326.876 61.208 326.15 61.976C325.446 62.7227 325.094 63.8 325.094 65.208V75H320.614V51.32H325.094V59.48C325.67 58.712 326.438 58.1147 327.398 57.688C328.358 57.24 329.425 57.016 330.598 57.016ZM340.618 66.072C340.618 64.28 340.97 62.6907 341.674 61.304C342.4 59.9173 343.371 58.8507 344.587 58.104C345.824 57.3573 347.2 56.984 348.715 56.984C350.037 56.984 351.189 57.2507 352.171 57.784C353.173 58.3173 353.973 58.9893 354.571 59.8V57.272H359.083V75H354.571V72.408C353.995 73.24 353.195 73.9333 352.171 74.488C351.168 75.0213 350.005 75.288 348.683 75.288C347.189 75.288 345.824 74.904 344.587 74.136C343.371 73.368 342.4 72.2907 341.674 70.904C340.97 69.496 340.618 67.8853 340.618 66.072ZM354.571 66.136C354.571 65.048 354.357 64.12 353.931 63.352C353.504 62.5627 352.928 61.9653 352.203 61.56C351.477 61.1333 350.699 60.92 349.867 60.92C349.035 60.92 348.267 61.1227 347.562 61.528C346.859 61.9333 346.283 62.5307 345.835 63.32C345.408 64.088 345.195 65.0053 345.195 66.072C345.195 67.1387 345.408 68.0773 345.835 68.888C346.283 69.6773 346.859 70.2853 347.562 70.712C348.288 71.1387 349.056 71.352 349.867 71.352C350.699 71.352 351.477 71.1493 352.203 70.744C352.928 70.3173 353.504 69.72 353.931 68.952C354.357 68.1627 354.571 67.224 354.571 66.136ZM368.674 60.952V69.528C368.674 70.1253 368.813 70.5627 369.09 70.84C369.389 71.096 369.879 71.224 370.562 71.224H372.642V75H369.826C366.05 75 364.162 73.1653 364.162 69.496V60.952H362.05V57.272H364.162V52.888H368.674V57.272H372.642V60.952H368.674ZM382.648 75.288C381.198 75.288 379.896 75.032 378.744 74.52C377.592 73.9867 376.675 73.272 375.992 72.376C375.331 71.48 374.968 70.488 374.904 69.4H379.416C379.502 70.0827 379.832 70.648 380.408 71.096C381.006 71.544 381.742 71.768 382.616 71.768C383.47 71.768 384.131 71.5973 384.6 71.256C385.091 70.9147 385.336 70.4773 385.336 69.944C385.336 69.368 385.038 68.9413 384.44 68.664C383.864 68.3653 382.936 68.0453 381.656 67.704C380.334 67.384 379.246 67.0533 378.392 66.712C377.56 66.3707 376.835 65.848 376.216 65.144C375.619 64.44 375.32 63.4907 375.32 62.296C375.32 61.3147 375.598 60.4187 376.152 59.608C376.728 58.7973 377.539 58.1573 378.584 57.688C379.651 57.2187 380.899 56.984 382.328 56.984C384.44 56.984 386.126 57.5173 387.384 58.584C388.643 59.6293 389.336 61.048 389.464 62.84H385.176C385.112 62.136 384.814 61.5813 384.28 61.176C383.768 60.7493 383.075 60.536 382.2 60.536C381.39 60.536 380.76 60.6853 380.312 60.984C379.886 61.2827 379.672 61.6987 379.672 62.232C379.672 62.8293 379.971 63.288 380.568 63.608C381.166 63.9067 382.094 64.216 383.352 64.536C384.632 64.856 385.688 65.1867 386.52 65.528C387.352 65.8693 388.067 66.4027 388.664 67.128C389.283 67.832 389.603 68.7707 389.624 69.944C389.624 70.968 389.336 71.8853 388.76 72.696C388.206 73.5067 387.395 74.1467 386.328 74.616C385.283 75.064 384.056 75.288 382.648 75.288ZM406.998 70.744H398.102L396.63 75H391.926L399.958 52.632H405.174L413.206 75H408.47L406.998 70.744ZM405.782 67.16L402.55 57.816L399.318 67.16H405.782ZM420.688 59.832C421.264 59.0213 422.053 58.3493 423.056 57.816C424.08 57.2613 425.243 56.984 426.544 56.984C428.059 56.984 429.424 57.3573 430.64 58.104C431.877 58.8507 432.848 59.9173 433.552 61.304C434.277 62.6693 434.64 64.2587 434.64 66.072C434.64 67.8853 434.277 69.496 433.552 70.904C432.848 72.2907 431.877 73.368 430.64 74.136C429.424 74.904 428.059 75.288 426.544 75.288C425.243 75.288 424.091 75.0213 423.088 74.488C422.107 73.9547 421.307 73.2827 420.688 72.472V83.448H416.208V57.272H420.688V59.832ZM430.064 66.072C430.064 65.0053 429.84 64.088 429.392 63.32C428.965 62.5307 428.389 61.9333 427.664 61.528C426.96 61.1227 426.192 60.92 425.36 60.92C424.549 60.92 423.781 61.1333 423.056 61.56C422.352 61.9653 421.776 62.5627 421.328 63.352C420.901 64.1413 420.688 65.0693 420.688 66.136C420.688 67.2027 420.901 68.1307 421.328 68.92C421.776 69.7093 422.352 70.3173 423.056 70.744C423.781 71.1493 424.549 71.352 425.36 71.352C426.192 71.352 426.96 71.1387 427.664 70.712C428.389 70.2853 428.965 69.6773 429.392 68.888C429.84 68.0987 430.064 67.16 430.064 66.072ZM442.376 59.832C442.952 59.0213 443.741 58.3493 444.744 57.816C445.768 57.2613 446.93 56.984 448.232 56.984C449.746 56.984 451.112 57.3573 452.328 58.104C453.565 58.8507 454.536 59.9173 455.24 61.304C455.965 62.6693 456.328 64.2587 456.328 66.072C456.328 67.8853 455.965 69.496 455.24 70.904C454.536 72.2907 453.565 73.368 452.328 74.136C451.112 74.904 449.746 75.288 448.232 75.288C446.93 75.288 445.778 75.0213 444.776 74.488C443.794 73.9547 442.994 73.2827 442.376 72.472V83.448H437.896V57.272H442.376V59.832ZM451.752 66.072C451.752 65.0053 451.528 64.088 451.08 63.32C450.653 62.5307 450.077 61.9333 449.352 61.528C448.648 61.1227 447.88 60.92 447.048 60.92C446.237 60.92 445.469 61.1333 444.744 61.56C444.04 61.9653 443.464 62.5627 443.016 63.352C442.589 64.1413 442.376 65.0693 442.376 66.136C442.376 67.2027 442.589 68.1307 443.016 68.92C443.464 69.7093 444.04 70.3173 444.744 70.744C445.469 71.1493 446.237 71.352 447.048 71.352C447.88 71.352 448.648 71.1387 449.352 70.712C450.077 70.2853 450.653 69.6773 451.08 68.888C451.528 68.0987 451.752 67.16 451.752 66.072Z" fill="#1E1E1E"/>
<defs>
<clipPath id="clip0_1316_7136">
<rect width="79" height="80" fill="white" transform="translate(50 24)"/>
</clipPath>
</defs>
</svg>
